<mxfile host="Electron" agent="Mozilla/5.0 (Macintosh; Intel Mac OS X 10_15_7) AppleWebKit/537.36 (KHTML, like Gecko) draw.io/24.7.17 Chrome/128.0.6613.36 Electron/32.0.1 Safari/537.36" version="24.7.17" pages="19">
  <diagram name="Page-1" id="QiLRlD8POYo1Nm-kRpUs">
    <mxGraphModel dx="1026" dy="675" grid="1" gridSize="10" guides="1" tooltips="1" connect="1" arrows="1" fold="1" page="1" pageScale="1" pageWidth="827" pageHeight="1169" math="0" shadow="0">
      <root>
        <mxCell id="0" />
        <mxCell id="1" parent="0" />
        <mxCell id="WvgTb6TmJ2qFR6dgfWQL-1" value="&lt;font size=&quot;3&quot;&gt;Start&lt;/font&gt;" style="shape=ellipse;html=1;dashed=0;whiteSpace=wrap;perimeter=ellipsePerimeter;" parent="1" vertex="1">
          <mxGeometry x="330" width="100" height="50" as="geometry" />
        </mxCell>
        <mxCell id="WvgTb6TmJ2qFR6dgfWQL-2" value="" style="endArrow=classic;html=1;rounded=0;" parent="1" edge="1">
          <mxGeometry width="50" height="50" relative="1" as="geometry">
            <mxPoint x="380" y="50" as="sourcePoint" />
            <mxPoint x="380" y="110" as="targetPoint" />
          </mxGeometry>
        </mxCell>
        <mxCell id="WvgTb6TmJ2qFR6dgfWQL-5" value="" style="edgeStyle=orthogonalEdgeStyle;rounded=0;orthogonalLoop=1;jettySize=auto;html=1;" parent="1" source="WvgTb6TmJ2qFR6dgfWQL-3" target="WvgTb6TmJ2qFR6dgfWQL-4" edge="1">
          <mxGeometry relative="1" as="geometry" />
        </mxCell>
        <mxCell id="WvgTb6TmJ2qFR6dgfWQL-3" value="int n" style="shape=parallelogram;perimeter=parallelogramPerimeter;whiteSpace=wrap;html=1;fixedSize=1;" parent="1" vertex="1">
          <mxGeometry x="320" y="110" width="120" height="60" as="geometry" />
        </mxCell>
        <mxCell id="WvgTb6TmJ2qFR6dgfWQL-7" value="" style="edgeStyle=orthogonalEdgeStyle;rounded=0;orthogonalLoop=1;jettySize=auto;html=1;" parent="1" source="WvgTb6TmJ2qFR6dgfWQL-4" target="WvgTb6TmJ2qFR6dgfWQL-6" edge="1">
          <mxGeometry relative="1" as="geometry" />
        </mxCell>
        <mxCell id="WvgTb6TmJ2qFR6dgfWQL-4" value="i = 1" style="whiteSpace=wrap;html=1;" parent="1" vertex="1">
          <mxGeometry x="320" y="250" width="120" height="60" as="geometry" />
        </mxCell>
        <mxCell id="WvgTb6TmJ2qFR6dgfWQL-6" value="i&amp;lt;1 = 10" style="whiteSpace=wrap;html=1;" parent="1" vertex="1">
          <mxGeometry x="320" y="390" width="120" height="60" as="geometry" />
        </mxCell>
        <mxCell id="WvgTb6TmJ2qFR6dgfWQL-8" value="" style="endArrow=classic;html=1;rounded=0;" parent="1" edge="1">
          <mxGeometry width="50" height="50" relative="1" as="geometry">
            <mxPoint x="380" y="450" as="sourcePoint" />
            <mxPoint x="380" y="520" as="targetPoint" />
          </mxGeometry>
        </mxCell>
        <mxCell id="WvgTb6TmJ2qFR6dgfWQL-9" value="print table" style="shape=parallelogram;perimeter=parallelogramPerimeter;whiteSpace=wrap;html=1;fixedSize=1;" parent="1" vertex="1">
          <mxGeometry x="320" y="650" width="120" height="60" as="geometry" />
        </mxCell>
        <mxCell id="WvgTb6TmJ2qFR6dgfWQL-10" value="" style="endArrow=classic;html=1;rounded=0;" parent="1" edge="1">
          <mxGeometry width="50" height="50" relative="1" as="geometry">
            <mxPoint x="370" y="580" as="sourcePoint" />
            <mxPoint x="370" y="650" as="targetPoint" />
          </mxGeometry>
        </mxCell>
        <mxCell id="WvgTb6TmJ2qFR6dgfWQL-12" value="table = i * n" style="whiteSpace=wrap;html=1;" parent="1" vertex="1">
          <mxGeometry x="320" y="520" width="120" height="60" as="geometry" />
        </mxCell>
        <mxCell id="WvgTb6TmJ2qFR6dgfWQL-13" value="" style="endArrow=classic;html=1;rounded=0;" parent="1" edge="1">
          <mxGeometry width="50" height="50" relative="1" as="geometry">
            <mxPoint x="380" y="710" as="sourcePoint" />
            <mxPoint x="380" y="790" as="targetPoint" />
          </mxGeometry>
        </mxCell>
        <mxCell id="WvgTb6TmJ2qFR6dgfWQL-14" value="End" style="shape=ellipse;html=1;dashed=0;whiteSpace=wrap;perimeter=ellipsePerimeter;" parent="1" vertex="1">
          <mxGeometry x="330" y="790" width="100" height="50" as="geometry" />
        </mxCell>
        <mxCell id="HxlTnfBzozcU4UnRQ29V-1" value="Q 3" style="text;html=1;align=center;verticalAlign=middle;resizable=0;points=[];autosize=1;strokeColor=none;fillColor=none;" parent="1" vertex="1">
          <mxGeometry x="10" y="28" width="40" height="30" as="geometry" />
        </mxCell>
        <mxCell id="jsYNuR-pNXtvSdX-_W75-1" value="ONLY FUNCTION QUESTION" style="text;html=1;align=center;verticalAlign=middle;resizable=0;points=[];autosize=1;strokeColor=none;fillColor=none;" vertex="1" parent="1">
          <mxGeometry x="30" y="80" width="190" height="30" as="geometry" />
        </mxCell>
      </root>
    </mxGraphModel>
  </diagram>
  <diagram id="PuQYX_V_4LuXBflNwiI4" name="Page-2">
    <mxGraphModel dx="1026" dy="676" grid="1" gridSize="10" guides="1" tooltips="1" connect="1" arrows="1" fold="1" page="1" pageScale="1" pageWidth="827" pageHeight="1169" math="0" shadow="0">
      <root>
        <mxCell id="0" />
        <mxCell id="1" parent="0" />
        <mxCell id="9TRJg4GHFXOhrzYNVbdf-3" value="" style="edgeStyle=orthogonalEdgeStyle;rounded=0;orthogonalLoop=1;jettySize=auto;html=1;" parent="1" source="9TRJg4GHFXOhrzYNVbdf-1" edge="1">
          <mxGeometry relative="1" as="geometry">
            <mxPoint x="390" y="205" as="targetPoint" />
          </mxGeometry>
        </mxCell>
        <mxCell id="9TRJg4GHFXOhrzYNVbdf-1" value="Start" style="shape=ellipse;html=1;dashed=0;whiteSpace=wrap;perimeter=ellipsePerimeter;" parent="1" vertex="1">
          <mxGeometry x="340" y="80" width="100" height="50" as="geometry" />
        </mxCell>
        <mxCell id="9TRJg4GHFXOhrzYNVbdf-6" value="" style="edgeStyle=orthogonalEdgeStyle;rounded=0;orthogonalLoop=1;jettySize=auto;html=1;" parent="1" source="9TRJg4GHFXOhrzYNVbdf-4" target="9TRJg4GHFXOhrzYNVbdf-5" edge="1">
          <mxGeometry relative="1" as="geometry" />
        </mxCell>
        <mxCell id="9TRJg4GHFXOhrzYNVbdf-4" value="int n,p,q" style="shape=parallelogram;perimeter=parallelogramPerimeter;whiteSpace=wrap;html=1;fixedSize=1;" parent="1" vertex="1">
          <mxGeometry x="330" y="200" width="120" height="60" as="geometry" />
        </mxCell>
        <mxCell id="9TRJg4GHFXOhrzYNVbdf-8" value="" style="edgeStyle=orthogonalEdgeStyle;rounded=0;orthogonalLoop=1;jettySize=auto;html=1;" parent="1" source="9TRJg4GHFXOhrzYNVbdf-5" edge="1">
          <mxGeometry relative="1" as="geometry">
            <mxPoint x="390" y="480" as="targetPoint" />
          </mxGeometry>
        </mxCell>
        <mxCell id="9TRJg4GHFXOhrzYNVbdf-5" value="avg=n+p+q/3" style="whiteSpace=wrap;html=1;" parent="1" vertex="1">
          <mxGeometry x="330" y="340" width="120" height="60" as="geometry" />
        </mxCell>
        <mxCell id="9TRJg4GHFXOhrzYNVbdf-11" value="" style="edgeStyle=orthogonalEdgeStyle;rounded=0;orthogonalLoop=1;jettySize=auto;html=1;" parent="1" source="9TRJg4GHFXOhrzYNVbdf-9" edge="1">
          <mxGeometry relative="1" as="geometry">
            <mxPoint x="390" y="610" as="targetPoint" />
          </mxGeometry>
        </mxCell>
        <mxCell id="9TRJg4GHFXOhrzYNVbdf-9" value="print avg" style="shape=parallelogram;perimeter=parallelogramPerimeter;whiteSpace=wrap;html=1;fixedSize=1;" parent="1" vertex="1">
          <mxGeometry x="330" y="480" width="120" height="60" as="geometry" />
        </mxCell>
        <mxCell id="9TRJg4GHFXOhrzYNVbdf-12" value="End" style="shape=ellipse;html=1;dashed=0;whiteSpace=wrap;perimeter=ellipsePerimeter;" parent="1" vertex="1">
          <mxGeometry x="340" y="600" width="100" height="50" as="geometry" />
        </mxCell>
        <mxCell id="gM39HVdHPTax2YmUW78q-1" value="Q 6" style="text;html=1;align=center;verticalAlign=middle;resizable=0;points=[];autosize=1;strokeColor=none;fillColor=none;" vertex="1" parent="1">
          <mxGeometry x="75" y="80" width="40" height="30" as="geometry" />
        </mxCell>
      </root>
    </mxGraphModel>
  </diagram>
  <diagram id="JvN6HDUfQvR-TKSe4he-" name="Page-3">
    <mxGraphModel dx="1026" dy="676" grid="1" gridSize="10" guides="1" tooltips="1" connect="1" arrows="1" fold="1" page="1" pageScale="1" pageWidth="827" pageHeight="1169" math="0" shadow="0">
      <root>
        <mxCell id="0" />
        <mxCell id="1" parent="0" />
        <mxCell id="NXeQgxae6VrAky-AcIMY-4" value="" style="edgeStyle=orthogonalEdgeStyle;rounded=0;orthogonalLoop=1;jettySize=auto;html=1;" edge="1" parent="1" source="NXeQgxae6VrAky-AcIMY-2">
          <mxGeometry relative="1" as="geometry">
            <mxPoint x="380" y="135" as="targetPoint" />
          </mxGeometry>
        </mxCell>
        <mxCell id="NXeQgxae6VrAky-AcIMY-2" value="Start" style="shape=ellipse;html=1;dashed=0;whiteSpace=wrap;perimeter=ellipsePerimeter;" vertex="1" parent="1">
          <mxGeometry x="330" y="10" width="100" height="50" as="geometry" />
        </mxCell>
        <mxCell id="NXeQgxae6VrAky-AcIMY-7" value="" style="edgeStyle=orthogonalEdgeStyle;rounded=0;orthogonalLoop=1;jettySize=auto;html=1;" edge="1" parent="1" source="NXeQgxae6VrAky-AcIMY-5" target="NXeQgxae6VrAky-AcIMY-6">
          <mxGeometry relative="1" as="geometry" />
        </mxCell>
        <mxCell id="NXeQgxae6VrAky-AcIMY-5" value="int l,b" style="shape=parallelogram;perimeter=parallelogramPerimeter;whiteSpace=wrap;html=1;fixedSize=1;" vertex="1" parent="1">
          <mxGeometry x="320" y="140" width="120" height="60" as="geometry" />
        </mxCell>
        <mxCell id="NXeQgxae6VrAky-AcIMY-9" value="" style="edgeStyle=orthogonalEdgeStyle;rounded=0;orthogonalLoop=1;jettySize=auto;html=1;" edge="1" parent="1" source="NXeQgxae6VrAky-AcIMY-6">
          <mxGeometry relative="1" as="geometry">
            <mxPoint x="380" y="420" as="targetPoint" />
          </mxGeometry>
        </mxCell>
        <mxCell id="NXeQgxae6VrAky-AcIMY-6" value="area = l*b" style="whiteSpace=wrap;html=1;" vertex="1" parent="1">
          <mxGeometry x="320" y="280" width="120" height="60" as="geometry" />
        </mxCell>
        <mxCell id="NXeQgxae6VrAky-AcIMY-16" value="" style="edgeStyle=orthogonalEdgeStyle;rounded=0;orthogonalLoop=1;jettySize=auto;html=1;exitX=0.5;exitY=1;exitDx=0;exitDy=0;" edge="1" parent="1" source="NXeQgxae6VrAky-AcIMY-14">
          <mxGeometry relative="1" as="geometry">
            <mxPoint x="350" y="500" as="sourcePoint" />
            <mxPoint x="380" y="540" as="targetPoint" />
            <Array as="points" />
          </mxGeometry>
        </mxCell>
        <mxCell id="NXeQgxae6VrAky-AcIMY-14" value="print area" style="shape=parallelogram;perimeter=parallelogramPerimeter;whiteSpace=wrap;html=1;fixedSize=1;" vertex="1" parent="1">
          <mxGeometry x="320" y="420" width="120" height="60" as="geometry" />
        </mxCell>
        <mxCell id="NXeQgxae6VrAky-AcIMY-17" value="End" style="shape=ellipse;html=1;dashed=0;whiteSpace=wrap;perimeter=ellipsePerimeter;" vertex="1" parent="1">
          <mxGeometry x="330" y="540" width="100" height="50" as="geometry" />
        </mxCell>
        <mxCell id="NXeQgxae6VrAky-AcIMY-19" value="Q 8" style="text;html=1;align=center;verticalAlign=middle;resizable=0;points=[];autosize=1;strokeColor=none;fillColor=none;" vertex="1" parent="1">
          <mxGeometry y="18" width="40" height="30" as="geometry" />
        </mxCell>
      </root>
    </mxGraphModel>
  </diagram>
  <diagram id="GKq8CtuAnsHIOuyAE7HK" name="Page-4">
    <mxGraphModel dx="1026" dy="676" grid="1" gridSize="10" guides="1" tooltips="1" connect="1" arrows="1" fold="1" page="1" pageScale="1" pageWidth="827" pageHeight="1169" math="0" shadow="0">
      <root>
        <mxCell id="0" />
        <mxCell id="1" parent="0" />
        <mxCell id="tobsdJbrXtMr-_bdJdBi-3" value="" style="edgeStyle=orthogonalEdgeStyle;rounded=0;orthogonalLoop=1;jettySize=auto;html=1;" edge="1" parent="1">
          <mxGeometry relative="1" as="geometry">
            <mxPoint x="400" y="80" as="sourcePoint" />
            <mxPoint x="400" y="170" as="targetPoint" />
          </mxGeometry>
        </mxCell>
        <mxCell id="tobsdJbrXtMr-_bdJdBi-6" value="" style="edgeStyle=orthogonalEdgeStyle;rounded=0;orthogonalLoop=1;jettySize=auto;html=1;" edge="1" parent="1" source="tobsdJbrXtMr-_bdJdBi-4" target="tobsdJbrXtMr-_bdJdBi-5">
          <mxGeometry relative="1" as="geometry" />
        </mxCell>
        <mxCell id="tobsdJbrXtMr-_bdJdBi-4" value="int r" style="shape=parallelogram;perimeter=parallelogramPerimeter;whiteSpace=wrap;html=1;fixedSize=1;" vertex="1" parent="1">
          <mxGeometry x="340" y="170" width="120" height="60" as="geometry" />
        </mxCell>
        <mxCell id="tobsdJbrXtMr-_bdJdBi-8" value="" style="edgeStyle=orthogonalEdgeStyle;rounded=0;orthogonalLoop=1;jettySize=auto;html=1;" edge="1" parent="1" source="tobsdJbrXtMr-_bdJdBi-5" target="tobsdJbrXtMr-_bdJdBi-7">
          <mxGeometry relative="1" as="geometry" />
        </mxCell>
        <mxCell id="tobsdJbrXtMr-_bdJdBi-5" value="pi = 3.14" style="whiteSpace=wrap;html=1;" vertex="1" parent="1">
          <mxGeometry x="340" y="310" width="120" height="60" as="geometry" />
        </mxCell>
        <mxCell id="tobsdJbrXtMr-_bdJdBi-10" value="" style="edgeStyle=orthogonalEdgeStyle;rounded=0;orthogonalLoop=1;jettySize=auto;html=1;" edge="1" parent="1" source="tobsdJbrXtMr-_bdJdBi-7">
          <mxGeometry relative="1" as="geometry">
            <mxPoint x="400" y="590" as="targetPoint" />
          </mxGeometry>
        </mxCell>
        <mxCell id="tobsdJbrXtMr-_bdJdBi-7" value="circumference = 2*pi*r" style="whiteSpace=wrap;html=1;" vertex="1" parent="1">
          <mxGeometry x="340" y="450" width="120" height="60" as="geometry" />
        </mxCell>
        <mxCell id="tobsdJbrXtMr-_bdJdBi-13" value="" style="edgeStyle=orthogonalEdgeStyle;rounded=0;orthogonalLoop=1;jettySize=auto;html=1;" edge="1" parent="1" source="tobsdJbrXtMr-_bdJdBi-11">
          <mxGeometry relative="1" as="geometry">
            <mxPoint x="400" y="720" as="targetPoint" />
          </mxGeometry>
        </mxCell>
        <mxCell id="tobsdJbrXtMr-_bdJdBi-11" value="print circumference" style="shape=parallelogram;perimeter=parallelogramPerimeter;whiteSpace=wrap;html=1;fixedSize=1;" vertex="1" parent="1">
          <mxGeometry x="340" y="590" width="120" height="60" as="geometry" />
        </mxCell>
        <mxCell id="tobsdJbrXtMr-_bdJdBi-14" value="End" style="shape=ellipse;html=1;dashed=0;whiteSpace=wrap;perimeter=ellipsePerimeter;" vertex="1" parent="1">
          <mxGeometry x="350" y="720" width="100" height="50" as="geometry" />
        </mxCell>
        <mxCell id="tobsdJbrXtMr-_bdJdBi-15" value="Start" style="shape=ellipse;html=1;dashed=0;whiteSpace=wrap;perimeter=ellipsePerimeter;" vertex="1" parent="1">
          <mxGeometry x="350" y="30" width="100" height="50" as="geometry" />
        </mxCell>
        <mxCell id="78fsEuNEJ4gdOW-0IOw1-1" value="Q 9" style="text;html=1;align=center;verticalAlign=middle;resizable=0;points=[];autosize=1;strokeColor=none;fillColor=none;" vertex="1" parent="1">
          <mxGeometry x="20" y="38" width="40" height="30" as="geometry" />
        </mxCell>
      </root>
    </mxGraphModel>
  </diagram>
  <diagram id="dn_iT20TgrqE7UsNrMgn" name="Page-5">
    <mxGraphModel dx="1026" dy="675" grid="1" gridSize="10" guides="1" tooltips="1" connect="1" arrows="1" fold="1" page="1" pageScale="1" pageWidth="827" pageHeight="1169" math="0" shadow="0">
      <root>
        <mxCell id="0" />
        <mxCell id="1" parent="0" />
        <mxCell id="GUTRLvtNlEL12RiOFysg-3" value="" style="edgeStyle=orthogonalEdgeStyle;rounded=0;orthogonalLoop=1;jettySize=auto;html=1;" parent="1" source="GUTRLvtNlEL12RiOFysg-1" edge="1">
          <mxGeometry relative="1" as="geometry">
            <mxPoint x="390" y="125" as="targetPoint" />
          </mxGeometry>
        </mxCell>
        <mxCell id="GUTRLvtNlEL12RiOFysg-1" value="Start" style="shape=ellipse;html=1;dashed=0;whiteSpace=wrap;perimeter=ellipsePerimeter;" parent="1" vertex="1">
          <mxGeometry x="340" width="100" height="50" as="geometry" />
        </mxCell>
        <mxCell id="GUTRLvtNlEL12RiOFysg-6" value="" style="edgeStyle=orthogonalEdgeStyle;rounded=0;orthogonalLoop=1;jettySize=auto;html=1;" parent="1" source="GUTRLvtNlEL12RiOFysg-4" edge="1">
          <mxGeometry relative="1" as="geometry">
            <mxPoint x="390" y="270" as="targetPoint" />
          </mxGeometry>
        </mxCell>
        <mxCell id="GUTRLvtNlEL12RiOFysg-4" value="int n" style="shape=parallelogram;perimeter=parallelogramPerimeter;whiteSpace=wrap;html=1;fixedSize=1;" parent="1" vertex="1">
          <mxGeometry x="330" y="130" width="120" height="60" as="geometry" />
        </mxCell>
        <mxCell id="GUTRLvtNlEL12RiOFysg-7" value="n%2 == 0" style="rhombus;whiteSpace=wrap;html=1;" parent="1" vertex="1">
          <mxGeometry x="350" y="270" width="80" height="80" as="geometry" />
        </mxCell>
        <mxCell id="GUTRLvtNlEL12RiOFysg-8" value="" style="endArrow=none;html=1;rounded=0;" parent="1" edge="1">
          <mxGeometry width="50" height="50" relative="1" as="geometry">
            <mxPoint x="260" y="310" as="sourcePoint" />
            <mxPoint x="350" y="310" as="targetPoint" />
          </mxGeometry>
        </mxCell>
        <mxCell id="GUTRLvtNlEL12RiOFysg-9" value="" style="endArrow=none;html=1;rounded=0;exitX=1;exitY=0.5;exitDx=0;exitDy=0;" parent="1" source="GUTRLvtNlEL12RiOFysg-7" edge="1">
          <mxGeometry width="50" height="50" relative="1" as="geometry">
            <mxPoint x="440" y="309.5" as="sourcePoint" />
            <mxPoint x="530" y="309.5" as="targetPoint" />
          </mxGeometry>
        </mxCell>
        <mxCell id="GUTRLvtNlEL12RiOFysg-11" value="" style="endArrow=classic;html=1;rounded=0;" parent="1" edge="1">
          <mxGeometry width="50" height="50" relative="1" as="geometry">
            <mxPoint x="260" y="310" as="sourcePoint" />
            <mxPoint x="260" y="410" as="targetPoint" />
          </mxGeometry>
        </mxCell>
        <mxCell id="GUTRLvtNlEL12RiOFysg-14" value="" style="endArrow=classic;html=1;rounded=0;" parent="1" edge="1">
          <mxGeometry width="50" height="50" relative="1" as="geometry">
            <mxPoint x="530" y="310" as="sourcePoint" />
            <mxPoint x="530" y="410" as="targetPoint" />
          </mxGeometry>
        </mxCell>
        <mxCell id="GUTRLvtNlEL12RiOFysg-15" value="print even" style="shape=parallelogram;perimeter=parallelogramPerimeter;whiteSpace=wrap;html=1;fixedSize=1;" parent="1" vertex="1">
          <mxGeometry x="200" y="410" width="120" height="60" as="geometry" />
        </mxCell>
        <mxCell id="GUTRLvtNlEL12RiOFysg-16" value="print odd" style="shape=parallelogram;perimeter=parallelogramPerimeter;whiteSpace=wrap;html=1;fixedSize=1;" parent="1" vertex="1">
          <mxGeometry x="470" y="410" width="120" height="60" as="geometry" />
        </mxCell>
        <mxCell id="GUTRLvtNlEL12RiOFysg-17" value="" style="endArrow=none;html=1;rounded=0;entryX=0;entryY=0.75;entryDx=0;entryDy=0;" parent="1" target="GUTRLvtNlEL12RiOFysg-16" edge="1">
          <mxGeometry width="50" height="50" relative="1" as="geometry">
            <mxPoint x="310" y="450" as="sourcePoint" />
            <mxPoint x="360" y="400" as="targetPoint" />
          </mxGeometry>
        </mxCell>
        <mxCell id="GUTRLvtNlEL12RiOFysg-18" value="" style="endArrow=classic;html=1;rounded=0;" parent="1" edge="1">
          <mxGeometry width="50" height="50" relative="1" as="geometry">
            <mxPoint x="390" y="450" as="sourcePoint" />
            <mxPoint x="390" y="540" as="targetPoint" />
          </mxGeometry>
        </mxCell>
        <mxCell id="GUTRLvtNlEL12RiOFysg-19" value="End" style="shape=ellipse;html=1;dashed=0;whiteSpace=wrap;perimeter=ellipsePerimeter;" parent="1" vertex="1">
          <mxGeometry x="340" y="540" width="100" height="50" as="geometry" />
        </mxCell>
        <mxCell id="GUTRLvtNlEL12RiOFysg-20" value="Q 10" style="text;html=1;align=center;verticalAlign=middle;resizable=0;points=[];autosize=1;strokeColor=none;fillColor=none;" parent="1" vertex="1">
          <mxGeometry x="15" y="18" width="50" height="30" as="geometry" />
        </mxCell>
        <mxCell id="OgFB-UShUltEQSDVoNnw-1" value="" style="edgeStyle=orthogonalEdgeStyle;rounded=0;orthogonalLoop=1;jettySize=auto;html=1;" edge="1" parent="1">
          <mxGeometry relative="1" as="geometry">
            <mxPoint x="390" y="125" as="targetPoint" />
            <mxPoint x="390" y="50" as="sourcePoint" />
          </mxGeometry>
        </mxCell>
        <mxCell id="OgFB-UShUltEQSDVoNnw-2" value="" style="edgeStyle=orthogonalEdgeStyle;rounded=0;orthogonalLoop=1;jettySize=auto;html=1;" edge="1" parent="1" source="OgFB-UShUltEQSDVoNnw-3">
          <mxGeometry relative="1" as="geometry">
            <mxPoint x="390" y="270" as="targetPoint" />
          </mxGeometry>
        </mxCell>
        <mxCell id="OgFB-UShUltEQSDVoNnw-3" value="int n" style="shape=parallelogram;perimeter=parallelogramPerimeter;whiteSpace=wrap;html=1;fixedSize=1;" vertex="1" parent="1">
          <mxGeometry x="330" y="130" width="120" height="60" as="geometry" />
        </mxCell>
        <mxCell id="OgFB-UShUltEQSDVoNnw-4" value="n%2 == 0" style="rhombus;whiteSpace=wrap;html=1;" vertex="1" parent="1">
          <mxGeometry x="350" y="270" width="80" height="80" as="geometry" />
        </mxCell>
        <mxCell id="OgFB-UShUltEQSDVoNnw-5" value="" style="endArrow=none;html=1;rounded=0;" edge="1" parent="1">
          <mxGeometry width="50" height="50" relative="1" as="geometry">
            <mxPoint x="260" y="310" as="sourcePoint" />
            <mxPoint x="350" y="310" as="targetPoint" />
          </mxGeometry>
        </mxCell>
        <mxCell id="OgFB-UShUltEQSDVoNnw-6" value="" style="endArrow=none;html=1;rounded=0;exitX=1;exitY=0.5;exitDx=0;exitDy=0;" edge="1" parent="1" source="OgFB-UShUltEQSDVoNnw-4">
          <mxGeometry width="50" height="50" relative="1" as="geometry">
            <mxPoint x="440" y="309.5" as="sourcePoint" />
            <mxPoint x="530" y="309.5" as="targetPoint" />
          </mxGeometry>
        </mxCell>
        <mxCell id="OgFB-UShUltEQSDVoNnw-7" value="" style="endArrow=classic;html=1;rounded=0;" edge="1" parent="1">
          <mxGeometry width="50" height="50" relative="1" as="geometry">
            <mxPoint x="260" y="310" as="sourcePoint" />
            <mxPoint x="260" y="410" as="targetPoint" />
          </mxGeometry>
        </mxCell>
        <mxCell id="OgFB-UShUltEQSDVoNnw-8" value="" style="endArrow=classic;html=1;rounded=0;" edge="1" parent="1">
          <mxGeometry width="50" height="50" relative="1" as="geometry">
            <mxPoint x="530" y="310" as="sourcePoint" />
            <mxPoint x="530" y="410" as="targetPoint" />
          </mxGeometry>
        </mxCell>
        <mxCell id="OgFB-UShUltEQSDVoNnw-9" value="" style="endArrow=none;html=1;rounded=0;entryX=0;entryY=0.75;entryDx=0;entryDy=0;" edge="1" parent="1">
          <mxGeometry width="50" height="50" relative="1" as="geometry">
            <mxPoint x="310" y="450" as="sourcePoint" />
            <mxPoint x="475" y="454" as="targetPoint" />
          </mxGeometry>
        </mxCell>
        <mxCell id="OgFB-UShUltEQSDVoNnw-10" value="" style="endArrow=classic;html=1;rounded=0;" edge="1" parent="1">
          <mxGeometry width="50" height="50" relative="1" as="geometry">
            <mxPoint x="390" y="450" as="sourcePoint" />
            <mxPoint x="390" y="540" as="targetPoint" />
          </mxGeometry>
        </mxCell>
        <mxCell id="OgFB-UShUltEQSDVoNnw-11" value="End" style="shape=ellipse;html=1;dashed=0;whiteSpace=wrap;perimeter=ellipsePerimeter;" vertex="1" parent="1">
          <mxGeometry x="340" y="540" width="100" height="50" as="geometry" />
        </mxCell>
      </root>
    </mxGraphModel>
  </diagram>
  <diagram id="d7HNTECU7OBKeK93mKFp" name="Page-6">
    <mxGraphModel dx="1026" dy="675" grid="1" gridSize="10" guides="1" tooltips="1" connect="1" arrows="1" fold="1" page="1" pageScale="1" pageWidth="827" pageHeight="1169" math="0" shadow="0">
      <root>
        <mxCell id="0" />
        <mxCell id="1" parent="0" />
        <mxCell id="fwig2u1Rx2qYBuJZ7aCt-3" value="" style="edgeStyle=orthogonalEdgeStyle;rounded=0;orthogonalLoop=1;jettySize=auto;html=1;" parent="1" source="fwig2u1Rx2qYBuJZ7aCt-1" edge="1">
          <mxGeometry relative="1" as="geometry">
            <mxPoint x="370" y="125" as="targetPoint" />
          </mxGeometry>
        </mxCell>
        <mxCell id="fwig2u1Rx2qYBuJZ7aCt-1" value="Start" style="shape=ellipse;html=1;dashed=0;whiteSpace=wrap;perimeter=ellipsePerimeter;" parent="1" vertex="1">
          <mxGeometry x="320" width="100" height="50" as="geometry" />
        </mxCell>
        <mxCell id="fwig2u1Rx2qYBuJZ7aCt-6" value="" style="edgeStyle=orthogonalEdgeStyle;rounded=0;orthogonalLoop=1;jettySize=auto;html=1;" parent="1" source="fwig2u1Rx2qYBuJZ7aCt-4" target="fwig2u1Rx2qYBuJZ7aCt-5" edge="1">
          <mxGeometry relative="1" as="geometry" />
        </mxCell>
        <mxCell id="fwig2u1Rx2qYBuJZ7aCt-4" value="int n" style="shape=parallelogram;perimeter=parallelogramPerimeter;whiteSpace=wrap;html=1;fixedSize=1;" parent="1" vertex="1">
          <mxGeometry x="310" y="130" width="120" height="60" as="geometry" />
        </mxCell>
        <mxCell id="fwig2u1Rx2qYBuJZ7aCt-8" value="" style="edgeStyle=orthogonalEdgeStyle;rounded=0;orthogonalLoop=1;jettySize=auto;html=1;" parent="1" source="fwig2u1Rx2qYBuJZ7aCt-5" target="fwig2u1Rx2qYBuJZ7aCt-7" edge="1">
          <mxGeometry relative="1" as="geometry" />
        </mxCell>
        <mxCell id="fwig2u1Rx2qYBuJZ7aCt-5" value="sum = 0" style="whiteSpace=wrap;html=1;" parent="1" vertex="1">
          <mxGeometry x="310" y="270" width="120" height="60" as="geometry" />
        </mxCell>
        <mxCell id="fwig2u1Rx2qYBuJZ7aCt-10" value="" style="edgeStyle=orthogonalEdgeStyle;rounded=0;orthogonalLoop=1;jettySize=auto;html=1;" parent="1" source="fwig2u1Rx2qYBuJZ7aCt-7" target="fwig2u1Rx2qYBuJZ7aCt-9" edge="1">
          <mxGeometry relative="1" as="geometry" />
        </mxCell>
        <mxCell id="fwig2u1Rx2qYBuJZ7aCt-7" value="i = 1" style="whiteSpace=wrap;html=1;" parent="1" vertex="1">
          <mxGeometry x="310" y="410" width="120" height="60" as="geometry" />
        </mxCell>
        <mxCell id="fwig2u1Rx2qYBuJZ7aCt-9" value="i&amp;lt;= n" style="rhombus;whiteSpace=wrap;html=1;" parent="1" vertex="1">
          <mxGeometry x="330" y="540" width="80" height="80" as="geometry" />
        </mxCell>
        <mxCell id="fwig2u1Rx2qYBuJZ7aCt-14" value="" style="edgeStyle=orthogonalEdgeStyle;rounded=0;orthogonalLoop=1;jettySize=auto;html=1;" parent="1" target="fwig2u1Rx2qYBuJZ7aCt-13" edge="1">
          <mxGeometry relative="1" as="geometry">
            <mxPoint x="530" y="610" as="sourcePoint" />
          </mxGeometry>
        </mxCell>
        <mxCell id="fwig2u1Rx2qYBuJZ7aCt-18" value="" style="edgeStyle=orthogonalEdgeStyle;rounded=0;orthogonalLoop=1;jettySize=auto;html=1;" parent="1" source="fwig2u1Rx2qYBuJZ7aCt-13" edge="1">
          <mxGeometry relative="1" as="geometry">
            <mxPoint x="530" y="820" as="targetPoint" />
          </mxGeometry>
        </mxCell>
        <mxCell id="fwig2u1Rx2qYBuJZ7aCt-13" value="Print sum" style="whiteSpace=wrap;html=1;" parent="1" vertex="1">
          <mxGeometry x="470" y="690" width="120" height="60" as="geometry" />
        </mxCell>
        <mxCell id="fwig2u1Rx2qYBuJZ7aCt-15" value="" style="endArrow=none;html=1;rounded=0;" parent="1" edge="1">
          <mxGeometry width="50" height="50" relative="1" as="geometry">
            <mxPoint x="410" y="580" as="sourcePoint" />
            <mxPoint x="530" y="580" as="targetPoint" />
          </mxGeometry>
        </mxCell>
        <mxCell id="fwig2u1Rx2qYBuJZ7aCt-16" value="" style="endArrow=none;html=1;rounded=0;" parent="1" edge="1">
          <mxGeometry width="50" height="50" relative="1" as="geometry">
            <mxPoint x="530" y="580" as="sourcePoint" />
            <mxPoint x="530" y="610" as="targetPoint" />
          </mxGeometry>
        </mxCell>
        <mxCell id="fwig2u1Rx2qYBuJZ7aCt-19" value="End" style="shape=ellipse;html=1;dashed=0;whiteSpace=wrap;perimeter=ellipsePerimeter;" parent="1" vertex="1">
          <mxGeometry x="480" y="820" width="100" height="50" as="geometry" />
        </mxCell>
        <mxCell id="fwig2u1Rx2qYBuJZ7aCt-23" value="" style="edgeStyle=orthogonalEdgeStyle;rounded=0;orthogonalLoop=1;jettySize=auto;html=1;" parent="1" source="fwig2u1Rx2qYBuJZ7aCt-20" target="fwig2u1Rx2qYBuJZ7aCt-22" edge="1">
          <mxGeometry relative="1" as="geometry" />
        </mxCell>
        <mxCell id="fwig2u1Rx2qYBuJZ7aCt-20" value="sum = sum + i" style="whiteSpace=wrap;html=1;" parent="1" vertex="1">
          <mxGeometry x="310" y="710" width="120" height="60" as="geometry" />
        </mxCell>
        <mxCell id="fwig2u1Rx2qYBuJZ7aCt-22" value="i = i + 1" style="whiteSpace=wrap;html=1;" parent="1" vertex="1">
          <mxGeometry x="310" y="850" width="120" height="60" as="geometry" />
        </mxCell>
        <mxCell id="fwig2u1Rx2qYBuJZ7aCt-25" value="" style="endArrow=classic;html=1;rounded=0;exitX=0.5;exitY=1;exitDx=0;exitDy=0;" parent="1" source="fwig2u1Rx2qYBuJZ7aCt-9" edge="1">
          <mxGeometry width="50" height="50" relative="1" as="geometry">
            <mxPoint x="370" y="630" as="sourcePoint" />
            <mxPoint x="370" y="700" as="targetPoint" />
          </mxGeometry>
        </mxCell>
        <mxCell id="fwig2u1Rx2qYBuJZ7aCt-27" value="Q 11" style="text;html=1;align=center;verticalAlign=middle;resizable=0;points=[];autosize=1;strokeColor=none;fillColor=none;" parent="1" vertex="1">
          <mxGeometry x="45" y="18" width="50" height="30" as="geometry" />
        </mxCell>
      </root>
    </mxGraphModel>
  </diagram>
  <diagram id="p6RHMv8iyp8HBp038Bru" name="Page-18">
    <mxGraphModel dx="1368" dy="900" grid="1" gridSize="10" guides="1" tooltips="1" connect="1" arrows="1" fold="1" page="1" pageScale="1" pageWidth="827" pageHeight="1169" math="0" shadow="0">
      <root>
        <mxCell id="0" />
        <mxCell id="1" parent="0" />
        <mxCell id="SY01Nh7C3gDGyOecKIcI-3" value="" style="edgeStyle=orthogonalEdgeStyle;rounded=0;orthogonalLoop=1;jettySize=auto;html=1;" edge="1" parent="1" source="SY01Nh7C3gDGyOecKIcI-1" target="SY01Nh7C3gDGyOecKIcI-2">
          <mxGeometry relative="1" as="geometry" />
        </mxCell>
        <mxCell id="SY01Nh7C3gDGyOecKIcI-1" value="Start" style="shape=ellipse;html=1;dashed=0;whiteSpace=wrap;perimeter=ellipsePerimeter;" vertex="1" parent="1">
          <mxGeometry x="340" y="10" width="100" height="50" as="geometry" />
        </mxCell>
        <mxCell id="SY01Nh7C3gDGyOecKIcI-5" value="" style="edgeStyle=orthogonalEdgeStyle;rounded=0;orthogonalLoop=1;jettySize=auto;html=1;" edge="1" parent="1" source="SY01Nh7C3gDGyOecKIcI-2" target="SY01Nh7C3gDGyOecKIcI-4">
          <mxGeometry relative="1" as="geometry" />
        </mxCell>
        <mxCell id="SY01Nh7C3gDGyOecKIcI-2" value="sum = 0" style="shape=parallelogram;perimeter=parallelogramPerimeter;whiteSpace=wrap;html=1;fixedSize=1;dashed=0;" vertex="1" parent="1">
          <mxGeometry x="330" y="135" width="120" height="60" as="geometry" />
        </mxCell>
        <mxCell id="SY01Nh7C3gDGyOecKIcI-7" value="" style="edgeStyle=orthogonalEdgeStyle;rounded=0;orthogonalLoop=1;jettySize=auto;html=1;" edge="1" parent="1" source="SY01Nh7C3gDGyOecKIcI-4" target="SY01Nh7C3gDGyOecKIcI-6">
          <mxGeometry relative="1" as="geometry" />
        </mxCell>
        <mxCell id="SY01Nh7C3gDGyOecKIcI-4" value="i = 1" style="whiteSpace=wrap;html=1;dashed=0;" vertex="1" parent="1">
          <mxGeometry x="330" y="275" width="120" height="60" as="geometry" />
        </mxCell>
        <mxCell id="SY01Nh7C3gDGyOecKIcI-9" value="" style="edgeStyle=orthogonalEdgeStyle;rounded=0;orthogonalLoop=1;jettySize=auto;html=1;" edge="1" parent="1" source="SY01Nh7C3gDGyOecKIcI-6" target="SY01Nh7C3gDGyOecKIcI-8">
          <mxGeometry relative="1" as="geometry" />
        </mxCell>
        <mxCell id="SY01Nh7C3gDGyOecKIcI-6" value="i &amp;lt; 0 = 100" style="rhombus;whiteSpace=wrap;html=1;dashed=0;" vertex="1" parent="1">
          <mxGeometry x="350" y="405" width="80" height="80" as="geometry" />
        </mxCell>
        <mxCell id="SY01Nh7C3gDGyOecKIcI-11" value="" style="edgeStyle=orthogonalEdgeStyle;rounded=0;orthogonalLoop=1;jettySize=auto;html=1;" edge="1" parent="1" source="SY01Nh7C3gDGyOecKIcI-8" target="SY01Nh7C3gDGyOecKIcI-10">
          <mxGeometry relative="1" as="geometry" />
        </mxCell>
        <mxCell id="SY01Nh7C3gDGyOecKIcI-8" value="sum = sum + i^2" style="whiteSpace=wrap;html=1;dashed=0;" vertex="1" parent="1">
          <mxGeometry x="330" y="575" width="120" height="60" as="geometry" />
        </mxCell>
        <mxCell id="SY01Nh7C3gDGyOecKIcI-10" value="i = i+1" style="whiteSpace=wrap;html=1;dashed=0;" vertex="1" parent="1">
          <mxGeometry x="330" y="715" width="120" height="60" as="geometry" />
        </mxCell>
        <mxCell id="SY01Nh7C3gDGyOecKIcI-12" value="" style="endArrow=none;html=1;rounded=0;exitX=1;exitY=0.5;exitDx=0;exitDy=0;" edge="1" parent="1" source="SY01Nh7C3gDGyOecKIcI-6">
          <mxGeometry width="50" height="50" relative="1" as="geometry">
            <mxPoint x="430" y="510" as="sourcePoint" />
            <mxPoint x="630" y="445" as="targetPoint" />
          </mxGeometry>
        </mxCell>
        <mxCell id="SY01Nh7C3gDGyOecKIcI-13" value="" style="endArrow=classic;html=1;rounded=0;" edge="1" parent="1">
          <mxGeometry width="50" height="50" relative="1" as="geometry">
            <mxPoint x="630" y="444.5" as="sourcePoint" />
            <mxPoint x="630" y="630" as="targetPoint" />
          </mxGeometry>
        </mxCell>
        <mxCell id="SY01Nh7C3gDGyOecKIcI-16" value="" style="edgeStyle=orthogonalEdgeStyle;rounded=0;orthogonalLoop=1;jettySize=auto;html=1;" edge="1" parent="1" source="SY01Nh7C3gDGyOecKIcI-14">
          <mxGeometry relative="1" as="geometry">
            <mxPoint x="630" y="770" as="targetPoint" />
          </mxGeometry>
        </mxCell>
        <mxCell id="SY01Nh7C3gDGyOecKIcI-14" value="print sum" style="shape=parallelogram;perimeter=parallelogramPerimeter;whiteSpace=wrap;html=1;fixedSize=1;" vertex="1" parent="1">
          <mxGeometry x="570" y="630" width="120" height="60" as="geometry" />
        </mxCell>
        <mxCell id="SY01Nh7C3gDGyOecKIcI-17" value="End" style="shape=ellipse;html=1;dashed=0;whiteSpace=wrap;perimeter=ellipsePerimeter;" vertex="1" parent="1">
          <mxGeometry x="580" y="770" width="100" height="50" as="geometry" />
        </mxCell>
        <mxCell id="SY01Nh7C3gDGyOecKIcI-18" value="" style="endArrow=classic;html=1;rounded=0;exitX=0;exitY=0.5;exitDx=0;exitDy=0;entryX=0;entryY=0.5;entryDx=0;entryDy=0;" edge="1" parent="1" source="SY01Nh7C3gDGyOecKIcI-10" target="SY01Nh7C3gDGyOecKIcI-6">
          <mxGeometry width="50" height="50" relative="1" as="geometry">
            <mxPoint x="290" y="800" as="sourcePoint" />
            <mxPoint x="260" y="480" as="targetPoint" />
            <Array as="points">
              <mxPoint x="180" y="580" />
            </Array>
          </mxGeometry>
        </mxCell>
        <mxCell id="SY01Nh7C3gDGyOecKIcI-19" value="TRUE" style="text;html=1;align=center;verticalAlign=middle;resizable=0;points=[];autosize=1;strokeColor=none;fillColor=none;" vertex="1" parent="1">
          <mxGeometry x="400" y="498" width="60" height="30" as="geometry" />
        </mxCell>
        <mxCell id="SY01Nh7C3gDGyOecKIcI-20" value="FALSE" style="text;html=1;align=center;verticalAlign=middle;resizable=0;points=[];autosize=1;strokeColor=none;fillColor=none;" vertex="1" parent="1">
          <mxGeometry x="450" y="398" width="60" height="30" as="geometry" />
        </mxCell>
        <mxCell id="SY01Nh7C3gDGyOecKIcI-21" value="Q.4" style="text;html=1;align=center;verticalAlign=middle;resizable=0;points=[];autosize=1;strokeColor=none;fillColor=none;" vertex="1" parent="1">
          <mxGeometry x="40" y="18" width="40" height="30" as="geometry" />
        </mxCell>
      </root>
    </mxGraphModel>
  </diagram>
  <diagram id="LyPSP_a8RML7h35m1VNW" name="Page-19">
    <mxGraphModel dx="1140" dy="750" grid="1" gridSize="10" guides="1" tooltips="1" connect="1" arrows="1" fold="1" page="1" pageScale="1" pageWidth="827" pageHeight="1169" math="0" shadow="0">
      <root>
        <mxCell id="0" />
        <mxCell id="1" parent="0" />
        <mxCell id="klodTSZrbCQdUKxA4LvQ-3" value="" style="edgeStyle=orthogonalEdgeStyle;rounded=0;orthogonalLoop=1;jettySize=auto;html=1;" edge="1" parent="1" source="klodTSZrbCQdUKxA4LvQ-1" target="klodTSZrbCQdUKxA4LvQ-2">
          <mxGeometry relative="1" as="geometry" />
        </mxCell>
        <mxCell id="klodTSZrbCQdUKxA4LvQ-1" value="Start" style="shape=ellipse;html=1;dashed=0;whiteSpace=wrap;perimeter=ellipsePerimeter;" vertex="1" parent="1">
          <mxGeometry x="330" y="20" width="100" height="50" as="geometry" />
        </mxCell>
        <mxCell id="klodTSZrbCQdUKxA4LvQ-5" value="" style="edgeStyle=orthogonalEdgeStyle;rounded=0;orthogonalLoop=1;jettySize=auto;html=1;" edge="1" parent="1" source="klodTSZrbCQdUKxA4LvQ-2" target="klodTSZrbCQdUKxA4LvQ-4">
          <mxGeometry relative="1" as="geometry" />
        </mxCell>
        <mxCell id="klodTSZrbCQdUKxA4LvQ-2" value="input&amp;nbsp;" style="shape=parallelogram;perimeter=parallelogramPerimeter;whiteSpace=wrap;html=1;fixedSize=1;dashed=0;" vertex="1" parent="1">
          <mxGeometry x="320" y="145" width="120" height="60" as="geometry" />
        </mxCell>
        <mxCell id="klodTSZrbCQdUKxA4LvQ-7" value="" style="edgeStyle=orthogonalEdgeStyle;rounded=0;orthogonalLoop=1;jettySize=auto;html=1;" edge="1" parent="1" source="klodTSZrbCQdUKxA4LvQ-4" target="klodTSZrbCQdUKxA4LvQ-6">
          <mxGeometry relative="1" as="geometry" />
        </mxCell>
        <mxCell id="klodTSZrbCQdUKxA4LvQ-4" value="DA = 50% Bs&lt;div&gt;TA = 30% Bs&lt;/div&gt;&lt;div&gt;HRA = 20% Bs&lt;/div&gt;" style="whiteSpace=wrap;html=1;dashed=0;" vertex="1" parent="1">
          <mxGeometry x="320" y="285" width="120" height="60" as="geometry" />
        </mxCell>
        <mxCell id="klodTSZrbCQdUKxA4LvQ-9" value="" style="edgeStyle=orthogonalEdgeStyle;rounded=0;orthogonalLoop=1;jettySize=auto;html=1;" edge="1" parent="1" source="klodTSZrbCQdUKxA4LvQ-6" target="klodTSZrbCQdUKxA4LvQ-8">
          <mxGeometry relative="1" as="geometry" />
        </mxCell>
        <mxCell id="klodTSZrbCQdUKxA4LvQ-6" value="G.S = HRA+TA+DA" style="whiteSpace=wrap;html=1;dashed=0;" vertex="1" parent="1">
          <mxGeometry x="320" y="425" width="120" height="60" as="geometry" />
        </mxCell>
        <mxCell id="klodTSZrbCQdUKxA4LvQ-11" value="" style="edgeStyle=orthogonalEdgeStyle;rounded=0;orthogonalLoop=1;jettySize=auto;html=1;" edge="1" parent="1" source="klodTSZrbCQdUKxA4LvQ-8">
          <mxGeometry relative="1" as="geometry">
            <mxPoint x="380" y="705" as="targetPoint" />
          </mxGeometry>
        </mxCell>
        <mxCell id="klodTSZrbCQdUKxA4LvQ-8" value="Print GS" style="shape=parallelogram;perimeter=parallelogramPerimeter;whiteSpace=wrap;html=1;fixedSize=1;dashed=0;" vertex="1" parent="1">
          <mxGeometry x="320" y="565" width="120" height="60" as="geometry" />
        </mxCell>
        <mxCell id="klodTSZrbCQdUKxA4LvQ-12" value="End" style="shape=ellipse;html=1;dashed=0;whiteSpace=wrap;perimeter=ellipsePerimeter;" vertex="1" parent="1">
          <mxGeometry x="330" y="710" width="100" height="50" as="geometry" />
        </mxCell>
        <mxCell id="klodTSZrbCQdUKxA4LvQ-13" value="Q.7" style="text;html=1;align=center;verticalAlign=middle;resizable=0;points=[];autosize=1;strokeColor=none;fillColor=none;" vertex="1" parent="1">
          <mxGeometry x="40" y="38" width="40" height="30" as="geometry" />
        </mxCell>
      </root>
    </mxGraphModel>
  </diagram>
  <diagram id="kHA3He8k-ydXuSz38NND" name="Page-17">
    <mxGraphModel dx="1026" dy="675" grid="1" gridSize="10" guides="1" tooltips="1" connect="1" arrows="1" fold="1" page="1" pageScale="1" pageWidth="827" pageHeight="1169" math="0" shadow="0">
      <root>
        <mxCell id="0" />
        <mxCell id="1" parent="0" />
        <mxCell id="_Bm5nyL8fwYPp0AJCB4j-1" value="" style="edgeStyle=orthogonalEdgeStyle;rounded=0;orthogonalLoop=1;jettySize=auto;html=1;" edge="1" parent="1" source="_Bm5nyL8fwYPp0AJCB4j-2" target="_Bm5nyL8fwYPp0AJCB4j-4">
          <mxGeometry relative="1" as="geometry" />
        </mxCell>
        <mxCell id="_Bm5nyL8fwYPp0AJCB4j-2" value="Start" style="shape=ellipse;html=1;dashed=0;whiteSpace=wrap;perimeter=ellipsePerimeter;" vertex="1" parent="1">
          <mxGeometry x="340" y="10" width="100" height="50" as="geometry" />
        </mxCell>
        <mxCell id="_Bm5nyL8fwYPp0AJCB4j-3" value="" style="edgeStyle=orthogonalEdgeStyle;rounded=0;orthogonalLoop=1;jettySize=auto;html=1;" edge="1" parent="1" source="_Bm5nyL8fwYPp0AJCB4j-4" target="_Bm5nyL8fwYPp0AJCB4j-6">
          <mxGeometry relative="1" as="geometry" />
        </mxCell>
        <mxCell id="_Bm5nyL8fwYPp0AJCB4j-4" value="input n" style="shape=parallelogram;perimeter=parallelogramPerimeter;whiteSpace=wrap;html=1;fixedSize=1;dashed=0;" vertex="1" parent="1">
          <mxGeometry x="330" y="135" width="120" height="60" as="geometry" />
        </mxCell>
        <mxCell id="_Bm5nyL8fwYPp0AJCB4j-5" value="" style="edgeStyle=orthogonalEdgeStyle;rounded=0;orthogonalLoop=1;jettySize=auto;html=1;" edge="1" parent="1" source="_Bm5nyL8fwYPp0AJCB4j-6" target="_Bm5nyL8fwYPp0AJCB4j-8">
          <mxGeometry relative="1" as="geometry" />
        </mxCell>
        <mxCell id="_Bm5nyL8fwYPp0AJCB4j-6" value="i = 2" style="whiteSpace=wrap;html=1;dashed=0;" vertex="1" parent="1">
          <mxGeometry x="330" y="275" width="120" height="60" as="geometry" />
        </mxCell>
        <mxCell id="_Bm5nyL8fwYPp0AJCB4j-7" value="" style="edgeStyle=orthogonalEdgeStyle;rounded=0;orthogonalLoop=1;jettySize=auto;html=1;" edge="1" parent="1" source="_Bm5nyL8fwYPp0AJCB4j-8" target="_Bm5nyL8fwYPp0AJCB4j-10">
          <mxGeometry relative="1" as="geometry" />
        </mxCell>
        <mxCell id="_Bm5nyL8fwYPp0AJCB4j-8" value="i &amp;lt; n" style="rhombus;whiteSpace=wrap;html=1;dashed=0;" vertex="1" parent="1">
          <mxGeometry x="350" y="405" width="80" height="80" as="geometry" />
        </mxCell>
        <mxCell id="_Bm5nyL8fwYPp0AJCB4j-9" value="" style="edgeStyle=orthogonalEdgeStyle;rounded=0;orthogonalLoop=1;jettySize=auto;html=1;" edge="1" parent="1" source="_Bm5nyL8fwYPp0AJCB4j-10" target="_Bm5nyL8fwYPp0AJCB4j-11">
          <mxGeometry relative="1" as="geometry" />
        </mxCell>
        <mxCell id="_Bm5nyL8fwYPp0AJCB4j-10" value="n % 1 == 0" style="rhombus;whiteSpace=wrap;html=1;dashed=0;" vertex="1" parent="1">
          <mxGeometry x="350" y="565" width="80" height="80" as="geometry" />
        </mxCell>
        <mxCell id="_Bm5nyL8fwYPp0AJCB4j-11" value="i = i + 1" style="whiteSpace=wrap;html=1;dashed=0;" vertex="1" parent="1">
          <mxGeometry x="330" y="735" width="120" height="60" as="geometry" />
        </mxCell>
        <mxCell id="_Bm5nyL8fwYPp0AJCB4j-12" value="" style="endArrow=classic;html=1;rounded=0;" edge="1" parent="1">
          <mxGeometry width="50" height="50" relative="1" as="geometry">
            <mxPoint x="450" y="770" as="sourcePoint" />
            <mxPoint x="440" y="450" as="targetPoint" />
            <Array as="points">
              <mxPoint x="660" y="600" />
            </Array>
          </mxGeometry>
        </mxCell>
        <mxCell id="_Bm5nyL8fwYPp0AJCB4j-13" value="TRUE" style="text;html=1;align=center;verticalAlign=middle;resizable=0;points=[];autosize=1;strokeColor=none;fillColor=none;" vertex="1" parent="1">
          <mxGeometry x="390" y="498" width="60" height="30" as="geometry" />
        </mxCell>
        <mxCell id="_Bm5nyL8fwYPp0AJCB4j-14" value="FALSE" style="text;html=1;align=center;verticalAlign=middle;resizable=0;points=[];autosize=1;strokeColor=none;fillColor=none;" vertex="1" parent="1">
          <mxGeometry x="400" y="648" width="60" height="30" as="geometry" />
        </mxCell>
        <mxCell id="_Bm5nyL8fwYPp0AJCB4j-15" value="" style="endArrow=none;html=1;rounded=0;" edge="1" parent="1">
          <mxGeometry width="50" height="50" relative="1" as="geometry">
            <mxPoint x="350" y="450" as="sourcePoint" />
            <mxPoint x="140" y="450" as="targetPoint" />
          </mxGeometry>
        </mxCell>
        <mxCell id="_Bm5nyL8fwYPp0AJCB4j-17" value="" style="endArrow=classic;html=1;rounded=0;" edge="1" parent="1" target="_Bm5nyL8fwYPp0AJCB4j-21">
          <mxGeometry width="50" height="50" relative="1" as="geometry">
            <mxPoint x="140" y="450" as="sourcePoint" />
            <mxPoint x="140" y="690" as="targetPoint" />
          </mxGeometry>
        </mxCell>
        <mxCell id="_Bm5nyL8fwYPp0AJCB4j-18" value="" style="endArrow=none;html=1;rounded=0;" edge="1" parent="1">
          <mxGeometry width="50" height="50" relative="1" as="geometry">
            <mxPoint x="350" y="600" as="sourcePoint" />
            <mxPoint x="150" y="600" as="targetPoint" />
          </mxGeometry>
        </mxCell>
        <mxCell id="_Bm5nyL8fwYPp0AJCB4j-19" value="FALSE" style="text;html=1;align=center;verticalAlign=middle;resizable=0;points=[];autosize=1;strokeColor=none;fillColor=none;" vertex="1" parent="1">
          <mxGeometry x="190" y="398" width="60" height="30" as="geometry" />
        </mxCell>
        <mxCell id="_Bm5nyL8fwYPp0AJCB4j-20" value="TRUE" style="text;html=1;align=center;verticalAlign=middle;resizable=0;points=[];autosize=1;strokeColor=none;fillColor=none;" vertex="1" parent="1">
          <mxGeometry x="190" y="548" width="60" height="30" as="geometry" />
        </mxCell>
        <mxCell id="_Bm5nyL8fwYPp0AJCB4j-21" value="" style="rounded=1;whiteSpace=wrap;html=1;" vertex="1" parent="1">
          <mxGeometry x="80" y="660" width="120" height="60" as="geometry" />
        </mxCell>
        <mxCell id="_Bm5nyL8fwYPp0AJCB4j-22" value="" style="edgeStyle=orthogonalEdgeStyle;rounded=0;orthogonalLoop=1;jettySize=auto;html=1;" edge="1" parent="1" source="_Bm5nyL8fwYPp0AJCB4j-23" target="_Bm5nyL8fwYPp0AJCB4j-24">
          <mxGeometry relative="1" as="geometry" />
        </mxCell>
        <mxCell id="_Bm5nyL8fwYPp0AJCB4j-23" value="i == n" style="rounded=0;whiteSpace=wrap;html=1;" vertex="1" parent="1">
          <mxGeometry x="80" y="660" width="120" height="60" as="geometry" />
        </mxCell>
        <mxCell id="_Bm5nyL8fwYPp0AJCB4j-24" value="Prime&amp;nbsp;" style="shape=parallelogram;perimeter=parallelogramPerimeter;whiteSpace=wrap;html=1;fixedSize=1;rounded=0;" vertex="1" parent="1">
          <mxGeometry x="80" y="800" width="120" height="60" as="geometry" />
        </mxCell>
        <mxCell id="_Bm5nyL8fwYPp0AJCB4j-25" value="" style="endArrow=classic;html=1;rounded=0;" edge="1" parent="1">
          <mxGeometry width="50" height="50" relative="1" as="geometry">
            <mxPoint x="200" y="720" as="sourcePoint" />
            <mxPoint x="350" y="860" as="targetPoint" />
          </mxGeometry>
        </mxCell>
        <mxCell id="_Bm5nyL8fwYPp0AJCB4j-26" value="" style="edgeStyle=orthogonalEdgeStyle;rounded=0;orthogonalLoop=1;jettySize=auto;html=1;" edge="1" parent="1" source="_Bm5nyL8fwYPp0AJCB4j-27" target="_Bm5nyL8fwYPp0AJCB4j-30">
          <mxGeometry relative="1" as="geometry">
            <mxPoint x="340" y="990" as="targetPoint" />
          </mxGeometry>
        </mxCell>
        <mxCell id="_Bm5nyL8fwYPp0AJCB4j-27" value="Not prime" style="shape=parallelogram;perimeter=parallelogramPerimeter;whiteSpace=wrap;html=1;fixedSize=1;" vertex="1" parent="1">
          <mxGeometry x="280" y="860" width="120" height="60" as="geometry" />
        </mxCell>
        <mxCell id="_Bm5nyL8fwYPp0AJCB4j-28" value="" style="endArrow=none;html=1;rounded=0;" edge="1" parent="1">
          <mxGeometry width="50" height="50" relative="1" as="geometry">
            <mxPoint x="130" y="1010" as="sourcePoint" />
            <mxPoint x="130" y="860" as="targetPoint" />
          </mxGeometry>
        </mxCell>
        <mxCell id="_Bm5nyL8fwYPp0AJCB4j-29" value="" style="endArrow=classic;html=1;rounded=0;" edge="1" parent="1">
          <mxGeometry width="50" height="50" relative="1" as="geometry">
            <mxPoint x="130" y="1010" as="sourcePoint" />
            <mxPoint x="330" y="1010" as="targetPoint" />
          </mxGeometry>
        </mxCell>
        <mxCell id="_Bm5nyL8fwYPp0AJCB4j-30" value="End" style="shape=ellipse;html=1;dashed=0;whiteSpace=wrap;perimeter=ellipsePerimeter;" vertex="1" parent="1">
          <mxGeometry x="290" y="965" width="100" height="50" as="geometry" />
        </mxCell>
        <mxCell id="_Bm5nyL8fwYPp0AJCB4j-31" value="Q.5" style="text;html=1;align=center;verticalAlign=middle;resizable=0;points=[];autosize=1;strokeColor=none;fillColor=none;" vertex="1" parent="1">
          <mxGeometry x="50" y="18" width="40" height="30" as="geometry" />
        </mxCell>
      </root>
    </mxGraphModel>
  </diagram>
  <diagram id="3qS10i443Y1SkzZLPcxv" name="Page-7">
    <mxGraphModel dx="1026" dy="675" grid="1" gridSize="10" guides="1" tooltips="1" connect="1" arrows="1" fold="1" page="1" pageScale="1" pageWidth="827" pageHeight="1169" math="0" shadow="0">
      <root>
        <mxCell id="0" />
        <mxCell id="1" parent="0" />
        <mxCell id="Djjekb1xHcvTjxAA03gk-3" value="" style="edgeStyle=orthogonalEdgeStyle;rounded=0;orthogonalLoop=1;jettySize=auto;html=1;" parent="1" source="Djjekb1xHcvTjxAA03gk-1" edge="1">
          <mxGeometry relative="1" as="geometry">
            <mxPoint x="364" y="125" as="targetPoint" />
          </mxGeometry>
        </mxCell>
        <mxCell id="Djjekb1xHcvTjxAA03gk-1" value="Start" style="shape=ellipse;html=1;dashed=0;whiteSpace=wrap;perimeter=ellipsePerimeter;" parent="1" vertex="1">
          <mxGeometry x="314" width="100" height="50" as="geometry" />
        </mxCell>
        <mxCell id="Djjekb1xHcvTjxAA03gk-6" value="" style="edgeStyle=orthogonalEdgeStyle;rounded=0;orthogonalLoop=1;jettySize=auto;html=1;" parent="1" source="Djjekb1xHcvTjxAA03gk-4" edge="1">
          <mxGeometry relative="1" as="geometry">
            <mxPoint x="364" y="260" as="targetPoint" />
          </mxGeometry>
        </mxCell>
        <mxCell id="Djjekb1xHcvTjxAA03gk-4" value="int distance, speed" style="shape=parallelogram;perimeter=parallelogramPerimeter;whiteSpace=wrap;html=1;fixedSize=1;" parent="1" vertex="1">
          <mxGeometry x="304" y="130" width="120" height="60" as="geometry" />
        </mxCell>
        <mxCell id="Djjekb1xHcvTjxAA03gk-7" value="speed == 0" style="rhombus;whiteSpace=wrap;html=1;" parent="1" vertex="1">
          <mxGeometry x="324" y="260" width="80" height="80" as="geometry" />
        </mxCell>
        <mxCell id="Djjekb1xHcvTjxAA03gk-8" value="" style="endArrow=none;html=1;rounded=0;" parent="1" edge="1">
          <mxGeometry width="50" height="50" relative="1" as="geometry">
            <mxPoint x="400" y="300" as="sourcePoint" />
            <mxPoint x="510" y="300" as="targetPoint" />
          </mxGeometry>
        </mxCell>
        <mxCell id="Djjekb1xHcvTjxAA03gk-10" value="" style="endArrow=classic;html=1;rounded=0;" parent="1" edge="1">
          <mxGeometry width="50" height="50" relative="1" as="geometry">
            <mxPoint x="510" y="300" as="sourcePoint" />
            <mxPoint x="510" y="370" as="targetPoint" />
          </mxGeometry>
        </mxCell>
        <mxCell id="Djjekb1xHcvTjxAA03gk-13" value="" style="edgeStyle=orthogonalEdgeStyle;rounded=0;orthogonalLoop=1;jettySize=auto;html=1;" parent="1" source="Djjekb1xHcvTjxAA03gk-11" edge="1">
          <mxGeometry relative="1" as="geometry">
            <mxPoint x="520" y="510" as="targetPoint" />
          </mxGeometry>
        </mxCell>
        <mxCell id="Djjekb1xHcvTjxAA03gk-11" value="time = distance/speed" style="rounded=0;whiteSpace=wrap;html=1;" parent="1" vertex="1">
          <mxGeometry x="460" y="370" width="120" height="60" as="geometry" />
        </mxCell>
        <mxCell id="Djjekb1xHcvTjxAA03gk-14" value="print time" style="shape=parallelogram;perimeter=parallelogramPerimeter;whiteSpace=wrap;html=1;fixedSize=1;" parent="1" vertex="1">
          <mxGeometry x="460" y="510" width="120" height="60" as="geometry" />
        </mxCell>
        <mxCell id="Djjekb1xHcvTjxAA03gk-15" value="" style="endArrow=none;html=1;rounded=0;" parent="1" edge="1">
          <mxGeometry width="50" height="50" relative="1" as="geometry">
            <mxPoint x="230" y="300" as="sourcePoint" />
            <mxPoint x="320" y="300" as="targetPoint" />
          </mxGeometry>
        </mxCell>
        <mxCell id="Djjekb1xHcvTjxAA03gk-16" value="" style="endArrow=classic;html=1;rounded=0;" parent="1" edge="1">
          <mxGeometry width="50" height="50" relative="1" as="geometry">
            <mxPoint x="230" y="300" as="sourcePoint" />
            <mxPoint x="230" y="380" as="targetPoint" />
          </mxGeometry>
        </mxCell>
        <mxCell id="Djjekb1xHcvTjxAA03gk-19" value="" style="edgeStyle=orthogonalEdgeStyle;rounded=0;orthogonalLoop=1;jettySize=auto;html=1;" parent="1" source="Djjekb1xHcvTjxAA03gk-17" edge="1">
          <mxGeometry relative="1" as="geometry">
            <mxPoint x="230" y="520" as="targetPoint" />
          </mxGeometry>
        </mxCell>
        <mxCell id="Djjekb1xHcvTjxAA03gk-17" value="print invalid&amp;nbsp;" style="shape=parallelogram;perimeter=parallelogramPerimeter;whiteSpace=wrap;html=1;fixedSize=1;" parent="1" vertex="1">
          <mxGeometry x="170" y="390" width="120" height="60" as="geometry" />
        </mxCell>
        <mxCell id="Djjekb1xHcvTjxAA03gk-20" value="End" style="shape=ellipse;html=1;dashed=0;whiteSpace=wrap;perimeter=ellipsePerimeter;" parent="1" vertex="1">
          <mxGeometry x="180" y="520" width="100" height="50" as="geometry" />
        </mxCell>
        <mxCell id="Djjekb1xHcvTjxAA03gk-22" value="Q 12" style="text;html=1;align=center;verticalAlign=middle;resizable=0;points=[];autosize=1;strokeColor=none;fillColor=none;" parent="1" vertex="1">
          <mxGeometry x="45" y="28" width="50" height="30" as="geometry" />
        </mxCell>
        <mxCell id="cq_GxRqGvliDT68ozRJb-1" value="" style="endArrow=classic;html=1;rounded=0;entryX=1;entryY=0.5;entryDx=0;entryDy=0;" edge="1" parent="1" target="Djjekb1xHcvTjxAA03gk-20">
          <mxGeometry width="50" height="50" relative="1" as="geometry">
            <mxPoint x="470" y="540" as="sourcePoint" />
            <mxPoint x="520" y="490" as="targetPoint" />
          </mxGeometry>
        </mxCell>
      </root>
    </mxGraphModel>
  </diagram>
  <diagram id="6wy9aSbPAA2jw6Y1JH12" name="Page-8">
    <mxGraphModel dx="1026" dy="675" grid="1" gridSize="10" guides="1" tooltips="1" connect="1" arrows="1" fold="1" page="1" pageScale="1" pageWidth="827" pageHeight="1169" math="0" shadow="0">
      <root>
        <mxCell id="0" />
        <mxCell id="1" parent="0" />
        <mxCell id="Lpza-nZi7NGARCP4YLt--3" value="" style="edgeStyle=orthogonalEdgeStyle;rounded=0;orthogonalLoop=1;jettySize=auto;html=1;" parent="1" source="Lpza-nZi7NGARCP4YLt--1" edge="1">
          <mxGeometry relative="1" as="geometry">
            <mxPoint x="390" y="135" as="targetPoint" />
          </mxGeometry>
        </mxCell>
        <mxCell id="Lpza-nZi7NGARCP4YLt--1" value="Start" style="shape=ellipse;html=1;dashed=0;whiteSpace=wrap;perimeter=ellipsePerimeter;" parent="1" vertex="1">
          <mxGeometry x="340" y="10" width="100" height="50" as="geometry" />
        </mxCell>
        <mxCell id="Lpza-nZi7NGARCP4YLt--6" value="" style="edgeStyle=orthogonalEdgeStyle;rounded=0;orthogonalLoop=1;jettySize=auto;html=1;" parent="1" source="Lpza-nZi7NGARCP4YLt--4" target="Lpza-nZi7NGARCP4YLt--5" edge="1">
          <mxGeometry relative="1" as="geometry" />
        </mxCell>
        <mxCell id="Lpza-nZi7NGARCP4YLt--4" value="int num1 and num2" style="shape=parallelogram;perimeter=parallelogramPerimeter;whiteSpace=wrap;html=1;fixedSize=1;" parent="1" vertex="1">
          <mxGeometry x="330" y="140" width="120" height="60" as="geometry" />
        </mxCell>
        <mxCell id="Lpza-nZi7NGARCP4YLt--8" value="" style="edgeStyle=orthogonalEdgeStyle;rounded=0;orthogonalLoop=1;jettySize=auto;html=1;" parent="1" source="Lpza-nZi7NGARCP4YLt--5" edge="1">
          <mxGeometry relative="1" as="geometry">
            <mxPoint x="390" y="420" as="targetPoint" />
          </mxGeometry>
        </mxCell>
        <mxCell id="Lpza-nZi7NGARCP4YLt--5" value="sum = num1+num2" style="whiteSpace=wrap;html=1;" parent="1" vertex="1">
          <mxGeometry x="330" y="280" width="120" height="60" as="geometry" />
        </mxCell>
        <mxCell id="Lpza-nZi7NGARCP4YLt--11" value="" style="edgeStyle=orthogonalEdgeStyle;rounded=0;orthogonalLoop=1;jettySize=auto;html=1;" parent="1" source="Lpza-nZi7NGARCP4YLt--9" edge="1">
          <mxGeometry relative="1" as="geometry">
            <mxPoint x="380" y="550" as="targetPoint" />
          </mxGeometry>
        </mxCell>
        <mxCell id="Lpza-nZi7NGARCP4YLt--9" value="print sum" style="shape=parallelogram;perimeter=parallelogramPerimeter;whiteSpace=wrap;html=1;fixedSize=1;" parent="1" vertex="1">
          <mxGeometry x="320" y="420" width="120" height="60" as="geometry" />
        </mxCell>
        <mxCell id="Lpza-nZi7NGARCP4YLt--12" value="End" style="shape=ellipse;html=1;dashed=0;whiteSpace=wrap;perimeter=ellipsePerimeter;" parent="1" vertex="1">
          <mxGeometry x="330" y="550" width="100" height="50" as="geometry" />
        </mxCell>
        <mxCell id="Lpza-nZi7NGARCP4YLt--13" value="Q.1" style="text;html=1;align=center;verticalAlign=middle;resizable=0;points=[];autosize=1;strokeColor=none;fillColor=none;" parent="1" vertex="1">
          <mxGeometry x="40" y="18" width="40" height="30" as="geometry" />
        </mxCell>
        <mxCell id="WeNEtlo4tyfuceWuR_Kl-1" value="Algorithm question&lt;div&gt;&lt;br&gt;&lt;/div&gt;" style="text;html=1;align=center;verticalAlign=middle;resizable=0;points=[];autosize=1;strokeColor=none;fillColor=none;" vertex="1" parent="1">
          <mxGeometry x="50" y="60" width="120" height="40" as="geometry" />
        </mxCell>
      </root>
    </mxGraphModel>
  </diagram>
  <diagram id="tLnZpP6A6EHZzLtXEtcH" name="Page-9">
    <mxGraphModel dx="1026" dy="676" grid="1" gridSize="10" guides="1" tooltips="1" connect="1" arrows="1" fold="1" page="1" pageScale="1" pageWidth="827" pageHeight="1169" math="0" shadow="0">
      <root>
        <mxCell id="0" />
        <mxCell id="1" parent="0" />
        <mxCell id="mueq3vCL8KBUklw8dvz--3" value="" style="edgeStyle=orthogonalEdgeStyle;rounded=0;orthogonalLoop=1;jettySize=auto;html=1;" edge="1" parent="1" source="mueq3vCL8KBUklw8dvz--1">
          <mxGeometry relative="1" as="geometry">
            <mxPoint x="400" y="125" as="targetPoint" />
          </mxGeometry>
        </mxCell>
        <mxCell id="mueq3vCL8KBUklw8dvz--1" value="Start" style="shape=ellipse;html=1;dashed=0;whiteSpace=wrap;perimeter=ellipsePerimeter;" vertex="1" parent="1">
          <mxGeometry x="350" width="100" height="50" as="geometry" />
        </mxCell>
        <mxCell id="mueq3vCL8KBUklw8dvz--6" value="" style="edgeStyle=orthogonalEdgeStyle;rounded=0;orthogonalLoop=1;jettySize=auto;html=1;" edge="1" parent="1" source="mueq3vCL8KBUklw8dvz--4" target="mueq3vCL8KBUklw8dvz--5">
          <mxGeometry relative="1" as="geometry" />
        </mxCell>
        <mxCell id="mueq3vCL8KBUklw8dvz--4" value="int n" style="shape=parallelogram;perimeter=parallelogramPerimeter;whiteSpace=wrap;html=1;fixedSize=1;" vertex="1" parent="1">
          <mxGeometry x="340" y="130" width="120" height="60" as="geometry" />
        </mxCell>
        <mxCell id="mueq3vCL8KBUklw8dvz--8" value="" style="edgeStyle=orthogonalEdgeStyle;rounded=0;orthogonalLoop=1;jettySize=auto;html=1;" edge="1" parent="1" source="mueq3vCL8KBUklw8dvz--5" target="mueq3vCL8KBUklw8dvz--7">
          <mxGeometry relative="1" as="geometry" />
        </mxCell>
        <mxCell id="mueq3vCL8KBUklw8dvz--5" value="input list[n]" style="whiteSpace=wrap;html=1;" vertex="1" parent="1">
          <mxGeometry x="340" y="270" width="120" height="60" as="geometry" />
        </mxCell>
        <mxCell id="mueq3vCL8KBUklw8dvz--10" value="" style="edgeStyle=orthogonalEdgeStyle;rounded=0;orthogonalLoop=1;jettySize=auto;html=1;" edge="1" parent="1" source="mueq3vCL8KBUklw8dvz--7" target="mueq3vCL8KBUklw8dvz--9">
          <mxGeometry relative="1" as="geometry" />
        </mxCell>
        <mxCell id="mueq3vCL8KBUklw8dvz--7" value="largest.num=list[0]" style="whiteSpace=wrap;html=1;" vertex="1" parent="1">
          <mxGeometry x="340" y="410" width="120" height="60" as="geometry" />
        </mxCell>
        <mxCell id="mueq3vCL8KBUklw8dvz--12" value="" style="edgeStyle=orthogonalEdgeStyle;rounded=0;orthogonalLoop=1;jettySize=auto;html=1;" edge="1" parent="1" source="mueq3vCL8KBUklw8dvz--9" target="mueq3vCL8KBUklw8dvz--11">
          <mxGeometry relative="1" as="geometry" />
        </mxCell>
        <mxCell id="mueq3vCL8KBUklw8dvz--9" value="for each number to list" style="whiteSpace=wrap;html=1;" vertex="1" parent="1">
          <mxGeometry x="340" y="550" width="120" height="60" as="geometry" />
        </mxCell>
        <mxCell id="mueq3vCL8KBUklw8dvz--19" value="" style="edgeStyle=orthogonalEdgeStyle;rounded=0;orthogonalLoop=1;jettySize=auto;html=1;" edge="1" parent="1" source="mueq3vCL8KBUklw8dvz--11" target="mueq3vCL8KBUklw8dvz--18">
          <mxGeometry relative="1" as="geometry" />
        </mxCell>
        <mxCell id="mueq3vCL8KBUklw8dvz--11" value="number&amp;gt;largest=num" style="whiteSpace=wrap;html=1;" vertex="1" parent="1">
          <mxGeometry x="340" y="690" width="120" height="60" as="geometry" />
        </mxCell>
        <mxCell id="mueq3vCL8KBUklw8dvz--21" value="" style="edgeStyle=orthogonalEdgeStyle;rounded=0;orthogonalLoop=1;jettySize=auto;html=1;" edge="1" parent="1" source="mueq3vCL8KBUklw8dvz--18" target="mueq3vCL8KBUklw8dvz--20">
          <mxGeometry relative="1" as="geometry" />
        </mxCell>
        <mxCell id="mueq3vCL8KBUklw8dvz--18" value="largest = number" style="whiteSpace=wrap;html=1;" vertex="1" parent="1">
          <mxGeometry x="340" y="830" width="120" height="60" as="geometry" />
        </mxCell>
        <mxCell id="mueq3vCL8KBUklw8dvz--23" value="" style="edgeStyle=orthogonalEdgeStyle;rounded=0;orthogonalLoop=1;jettySize=auto;html=1;" edge="1" parent="1" source="mueq3vCL8KBUklw8dvz--20">
          <mxGeometry relative="1" as="geometry">
            <mxPoint x="400" y="1100" as="targetPoint" />
          </mxGeometry>
        </mxCell>
        <mxCell id="mueq3vCL8KBUklw8dvz--20" value="print largest number" style="shape=parallelogram;perimeter=parallelogramPerimeter;whiteSpace=wrap;html=1;fixedSize=1;" vertex="1" parent="1">
          <mxGeometry x="340" y="970" width="120" height="60" as="geometry" />
        </mxCell>
        <mxCell id="mueq3vCL8KBUklw8dvz--24" value="End" style="shape=ellipse;html=1;dashed=0;whiteSpace=wrap;perimeter=ellipsePerimeter;" vertex="1" parent="1">
          <mxGeometry x="340" y="1100" width="100" height="50" as="geometry" />
        </mxCell>
        <mxCell id="mueq3vCL8KBUklw8dvz--25" value="Q.2" style="text;html=1;align=center;verticalAlign=middle;resizable=0;points=[];autosize=1;strokeColor=none;fillColor=none;" vertex="1" parent="1">
          <mxGeometry x="70" y="38" width="40" height="30" as="geometry" />
        </mxCell>
      </root>
    </mxGraphModel>
  </diagram>
  <diagram id="AAUyNk4-8A7ZfXIlyqr5" name="Page-10">
    <mxGraphModel dx="1026" dy="676" grid="1" gridSize="10" guides="1" tooltips="1" connect="1" arrows="1" fold="1" page="1" pageScale="1" pageWidth="827" pageHeight="1169" math="0" shadow="0">
      <root>
        <mxCell id="0" />
        <mxCell id="1" parent="0" />
        <mxCell id="i1Xsw_Edh20_n4v7k4ll-4" value="" style="edgeStyle=orthogonalEdgeStyle;rounded=0;orthogonalLoop=1;jettySize=auto;html=1;" edge="1" parent="1" source="i1Xsw_Edh20_n4v7k4ll-2">
          <mxGeometry relative="1" as="geometry">
            <mxPoint x="414" y="175" as="targetPoint" />
          </mxGeometry>
        </mxCell>
        <mxCell id="i1Xsw_Edh20_n4v7k4ll-2" value="Start" style="shape=ellipse;html=1;dashed=0;whiteSpace=wrap;perimeter=ellipsePerimeter;" vertex="1" parent="1">
          <mxGeometry x="364" y="50" width="100" height="50" as="geometry" />
        </mxCell>
        <mxCell id="i1Xsw_Edh20_n4v7k4ll-7" value="" style="edgeStyle=orthogonalEdgeStyle;rounded=0;orthogonalLoop=1;jettySize=auto;html=1;" edge="1" parent="1" source="i1Xsw_Edh20_n4v7k4ll-5" target="i1Xsw_Edh20_n4v7k4ll-6">
          <mxGeometry relative="1" as="geometry" />
        </mxCell>
        <mxCell id="i1Xsw_Edh20_n4v7k4ll-5" value="int a,b" style="shape=parallelogram;perimeter=parallelogramPerimeter;whiteSpace=wrap;html=1;fixedSize=1;" vertex="1" parent="1">
          <mxGeometry x="354" y="180" width="120" height="60" as="geometry" />
        </mxCell>
        <mxCell id="i1Xsw_Edh20_n4v7k4ll-9" value="" style="edgeStyle=orthogonalEdgeStyle;rounded=0;orthogonalLoop=1;jettySize=auto;html=1;" edge="1" parent="1" source="i1Xsw_Edh20_n4v7k4ll-6" target="i1Xsw_Edh20_n4v7k4ll-8">
          <mxGeometry relative="1" as="geometry" />
        </mxCell>
        <mxCell id="i1Xsw_Edh20_n4v7k4ll-6" value="temp = a" style="whiteSpace=wrap;html=1;" vertex="1" parent="1">
          <mxGeometry x="354" y="320" width="120" height="60" as="geometry" />
        </mxCell>
        <mxCell id="i1Xsw_Edh20_n4v7k4ll-11" value="" style="edgeStyle=orthogonalEdgeStyle;rounded=0;orthogonalLoop=1;jettySize=auto;html=1;" edge="1" parent="1" source="i1Xsw_Edh20_n4v7k4ll-8" target="i1Xsw_Edh20_n4v7k4ll-10">
          <mxGeometry relative="1" as="geometry" />
        </mxCell>
        <mxCell id="i1Xsw_Edh20_n4v7k4ll-8" value="a = b" style="whiteSpace=wrap;html=1;" vertex="1" parent="1">
          <mxGeometry x="354" y="460" width="120" height="60" as="geometry" />
        </mxCell>
        <mxCell id="i1Xsw_Edh20_n4v7k4ll-13" value="" style="edgeStyle=orthogonalEdgeStyle;rounded=0;orthogonalLoop=1;jettySize=auto;html=1;" edge="1" parent="1" source="i1Xsw_Edh20_n4v7k4ll-10" target="i1Xsw_Edh20_n4v7k4ll-12">
          <mxGeometry relative="1" as="geometry" />
        </mxCell>
        <mxCell id="i1Xsw_Edh20_n4v7k4ll-10" value="b = temp" style="whiteSpace=wrap;html=1;" vertex="1" parent="1">
          <mxGeometry x="354" y="600" width="120" height="60" as="geometry" />
        </mxCell>
        <mxCell id="i1Xsw_Edh20_n4v7k4ll-15" value="" style="edgeStyle=orthogonalEdgeStyle;rounded=0;orthogonalLoop=1;jettySize=auto;html=1;" edge="1" parent="1" source="i1Xsw_Edh20_n4v7k4ll-12">
          <mxGeometry relative="1" as="geometry">
            <mxPoint x="414" y="880" as="targetPoint" />
          </mxGeometry>
        </mxCell>
        <mxCell id="i1Xsw_Edh20_n4v7k4ll-12" value="print a,b" style="shape=parallelogram;perimeter=parallelogramPerimeter;whiteSpace=wrap;html=1;fixedSize=1;" vertex="1" parent="1">
          <mxGeometry x="354" y="740" width="120" height="60" as="geometry" />
        </mxCell>
        <mxCell id="i1Xsw_Edh20_n4v7k4ll-16" value="End" style="shape=ellipse;html=1;dashed=0;whiteSpace=wrap;perimeter=ellipsePerimeter;" vertex="1" parent="1">
          <mxGeometry x="364" y="880" width="100" height="50" as="geometry" />
        </mxCell>
        <mxCell id="i1Xsw_Edh20_n4v7k4ll-17" value="Q.3" style="text;html=1;align=center;verticalAlign=middle;resizable=0;points=[];autosize=1;strokeColor=none;fillColor=none;" vertex="1" parent="1">
          <mxGeometry x="70" y="48" width="40" height="30" as="geometry" />
        </mxCell>
      </root>
    </mxGraphModel>
  </diagram>
  <diagram id="EC3tpRa8aZyH0N-8HE7N" name="Page-11">
    <mxGraphModel dx="1026" dy="675" grid="1" gridSize="10" guides="1" tooltips="1" connect="1" arrows="1" fold="1" page="1" pageScale="1" pageWidth="827" pageHeight="1169" math="0" shadow="0">
      <root>
        <mxCell id="0" />
        <mxCell id="1" parent="0" />
        <mxCell id="GebjdNS4HOf7iuYCK36O-3" value="" style="edgeStyle=orthogonalEdgeStyle;rounded=0;orthogonalLoop=1;jettySize=auto;html=1;" parent="1" source="GebjdNS4HOf7iuYCK36O-1" target="GebjdNS4HOf7iuYCK36O-2" edge="1">
          <mxGeometry relative="1" as="geometry" />
        </mxCell>
        <mxCell id="GebjdNS4HOf7iuYCK36O-1" value="start" style="shape=ellipse;html=1;dashed=0;whiteSpace=wrap;perimeter=ellipsePerimeter;" parent="1" vertex="1">
          <mxGeometry x="340" width="100" height="50" as="geometry" />
        </mxCell>
        <mxCell id="GebjdNS4HOf7iuYCK36O-5" value="" style="edgeStyle=orthogonalEdgeStyle;rounded=0;orthogonalLoop=1;jettySize=auto;html=1;" parent="1" source="GebjdNS4HOf7iuYCK36O-2" target="GebjdNS4HOf7iuYCK36O-4" edge="1">
          <mxGeometry relative="1" as="geometry" />
        </mxCell>
        <mxCell id="GebjdNS4HOf7iuYCK36O-2" value="input n" style="shape=parallelogram;perimeter=parallelogramPerimeter;whiteSpace=wrap;html=1;fixedSize=1;dashed=0;" parent="1" vertex="1">
          <mxGeometry x="330" y="125" width="120" height="60" as="geometry" />
        </mxCell>
        <mxCell id="GebjdNS4HOf7iuYCK36O-7" value="" style="edgeStyle=orthogonalEdgeStyle;rounded=0;orthogonalLoop=1;jettySize=auto;html=1;" parent="1" source="GebjdNS4HOf7iuYCK36O-4" target="GebjdNS4HOf7iuYCK36O-6" edge="1">
          <mxGeometry relative="1" as="geometry" />
        </mxCell>
        <mxCell id="GebjdNS4HOf7iuYCK36O-9" value="" style="edgeStyle=orthogonalEdgeStyle;rounded=0;orthogonalLoop=1;jettySize=auto;html=1;" parent="1" source="GebjdNS4HOf7iuYCK36O-4" target="GebjdNS4HOf7iuYCK36O-8" edge="1">
          <mxGeometry relative="1" as="geometry" />
        </mxCell>
        <mxCell id="GebjdNS4HOf7iuYCK36O-4" value="is number &amp;gt;=o" style="rhombus;whiteSpace=wrap;html=1;dashed=0;" parent="1" vertex="1">
          <mxGeometry x="350" y="255" width="80" height="80" as="geometry" />
        </mxCell>
        <mxCell id="GebjdNS4HOf7iuYCK36O-11" value="" style="edgeStyle=orthogonalEdgeStyle;rounded=0;orthogonalLoop=1;jettySize=auto;html=1;" parent="1" source="GebjdNS4HOf7iuYCK36O-6" edge="1">
          <mxGeometry relative="1" as="geometry">
            <mxPoint x="390" y="565" as="targetPoint" />
          </mxGeometry>
        </mxCell>
        <mxCell id="GebjdNS4HOf7iuYCK36O-6" value="print number" style="shape=parallelogram;perimeter=parallelogramPerimeter;whiteSpace=wrap;html=1;fixedSize=1;dashed=0;" parent="1" vertex="1">
          <mxGeometry x="330" y="425" width="120" height="60" as="geometry" />
        </mxCell>
        <mxCell id="GebjdNS4HOf7iuYCK36O-8" value="n = -1" style="shape=parallelogram;perimeter=parallelogramPerimeter;whiteSpace=wrap;html=1;fixedSize=1;dashed=0;" parent="1" vertex="1">
          <mxGeometry x="490" y="265" width="120" height="60" as="geometry" />
        </mxCell>
        <mxCell id="GebjdNS4HOf7iuYCK36O-14" value="End" style="shape=ellipse;html=1;dashed=0;whiteSpace=wrap;perimeter=ellipsePerimeter;" parent="1" vertex="1">
          <mxGeometry x="340" y="570" width="100" height="50" as="geometry" />
        </mxCell>
        <mxCell id="GebjdNS4HOf7iuYCK36O-15" value="" style="endArrow=none;html=1;rounded=0;" parent="1" edge="1">
          <mxGeometry width="50" height="50" relative="1" as="geometry">
            <mxPoint x="580" y="600" as="sourcePoint" />
            <mxPoint x="580" y="330" as="targetPoint" />
          </mxGeometry>
        </mxCell>
        <mxCell id="GebjdNS4HOf7iuYCK36O-16" value="" style="endArrow=none;html=1;rounded=0;exitX=1;exitY=0.5;exitDx=0;exitDy=0;" parent="1" source="GebjdNS4HOf7iuYCK36O-14" edge="1">
          <mxGeometry width="50" height="50" relative="1" as="geometry">
            <mxPoint x="530" y="790" as="sourcePoint" />
            <mxPoint x="580" y="600" as="targetPoint" />
          </mxGeometry>
        </mxCell>
        <mxCell id="GebjdNS4HOf7iuYCK36O-17" value="Q.4" style="text;html=1;align=center;verticalAlign=middle;resizable=0;points=[];autosize=1;strokeColor=none;fillColor=none;" parent="1" vertex="1">
          <mxGeometry x="50" y="18" width="40" height="30" as="geometry" />
        </mxCell>
      </root>
    </mxGraphModel>
  </diagram>
  <diagram id="wtJ_JCTSP5542M5uqnxR" name="Page-12">
    <mxGraphModel dx="1026" dy="675" grid="1" gridSize="10" guides="1" tooltips="1" connect="1" arrows="1" fold="1" page="1" pageScale="1" pageWidth="827" pageHeight="1169" math="0" shadow="0">
      <root>
        <mxCell id="0" />
        <mxCell id="1" parent="0" />
        <mxCell id="IKLcohhMue1p1g-BQx8n-1" value="" style="edgeStyle=orthogonalEdgeStyle;rounded=0;orthogonalLoop=1;jettySize=auto;html=1;" edge="1" parent="1">
          <mxGeometry relative="1" as="geometry">
            <mxPoint x="390" y="125" as="targetPoint" />
            <mxPoint x="390" y="50" as="sourcePoint" />
          </mxGeometry>
        </mxCell>
        <mxCell id="IKLcohhMue1p1g-BQx8n-2" value="" style="edgeStyle=orthogonalEdgeStyle;rounded=0;orthogonalLoop=1;jettySize=auto;html=1;" edge="1" parent="1" source="IKLcohhMue1p1g-BQx8n-3">
          <mxGeometry relative="1" as="geometry">
            <mxPoint x="390" y="270" as="targetPoint" />
          </mxGeometry>
        </mxCell>
        <mxCell id="IKLcohhMue1p1g-BQx8n-3" value="int n" style="shape=parallelogram;perimeter=parallelogramPerimeter;whiteSpace=wrap;html=1;fixedSize=1;" vertex="1" parent="1">
          <mxGeometry x="330" y="130" width="120" height="60" as="geometry" />
        </mxCell>
        <mxCell id="IKLcohhMue1p1g-BQx8n-4" value="n%2 == 0" style="rhombus;whiteSpace=wrap;html=1;" vertex="1" parent="1">
          <mxGeometry x="350" y="270" width="80" height="80" as="geometry" />
        </mxCell>
        <mxCell id="IKLcohhMue1p1g-BQx8n-5" value="" style="endArrow=none;html=1;rounded=0;" edge="1" parent="1">
          <mxGeometry width="50" height="50" relative="1" as="geometry">
            <mxPoint x="260" y="310" as="sourcePoint" />
            <mxPoint x="350" y="310" as="targetPoint" />
          </mxGeometry>
        </mxCell>
        <mxCell id="IKLcohhMue1p1g-BQx8n-6" value="" style="endArrow=none;html=1;rounded=0;exitX=1;exitY=0.5;exitDx=0;exitDy=0;" edge="1" parent="1" source="IKLcohhMue1p1g-BQx8n-4">
          <mxGeometry width="50" height="50" relative="1" as="geometry">
            <mxPoint x="440" y="309.5" as="sourcePoint" />
            <mxPoint x="530" y="309.5" as="targetPoint" />
          </mxGeometry>
        </mxCell>
        <mxCell id="IKLcohhMue1p1g-BQx8n-7" value="" style="endArrow=classic;html=1;rounded=0;" edge="1" parent="1">
          <mxGeometry width="50" height="50" relative="1" as="geometry">
            <mxPoint x="260" y="310" as="sourcePoint" />
            <mxPoint x="260" y="410" as="targetPoint" />
          </mxGeometry>
        </mxCell>
        <mxCell id="IKLcohhMue1p1g-BQx8n-8" value="" style="endArrow=classic;html=1;rounded=0;" edge="1" parent="1">
          <mxGeometry width="50" height="50" relative="1" as="geometry">
            <mxPoint x="530" y="310" as="sourcePoint" />
            <mxPoint x="530" y="410" as="targetPoint" />
          </mxGeometry>
        </mxCell>
        <mxCell id="IKLcohhMue1p1g-BQx8n-9" value="print even" style="shape=parallelogram;perimeter=parallelogramPerimeter;whiteSpace=wrap;html=1;fixedSize=1;" vertex="1" parent="1">
          <mxGeometry x="200" y="410" width="120" height="60" as="geometry" />
        </mxCell>
        <mxCell id="IKLcohhMue1p1g-BQx8n-10" value="print odd" style="shape=parallelogram;perimeter=parallelogramPerimeter;whiteSpace=wrap;html=1;fixedSize=1;" vertex="1" parent="1">
          <mxGeometry x="470" y="410" width="120" height="60" as="geometry" />
        </mxCell>
        <mxCell id="IKLcohhMue1p1g-BQx8n-11" value="" style="endArrow=none;html=1;rounded=0;entryX=0;entryY=0.75;entryDx=0;entryDy=0;" edge="1" parent="1" target="IKLcohhMue1p1g-BQx8n-10">
          <mxGeometry width="50" height="50" relative="1" as="geometry">
            <mxPoint x="310" y="450" as="sourcePoint" />
            <mxPoint x="360" y="400" as="targetPoint" />
          </mxGeometry>
        </mxCell>
        <mxCell id="IKLcohhMue1p1g-BQx8n-12" value="" style="endArrow=classic;html=1;rounded=0;" edge="1" parent="1">
          <mxGeometry width="50" height="50" relative="1" as="geometry">
            <mxPoint x="390" y="450" as="sourcePoint" />
            <mxPoint x="390" y="540" as="targetPoint" />
          </mxGeometry>
        </mxCell>
        <mxCell id="IKLcohhMue1p1g-BQx8n-13" value="End" style="shape=ellipse;html=1;dashed=0;whiteSpace=wrap;perimeter=ellipsePerimeter;" vertex="1" parent="1">
          <mxGeometry x="340" y="540" width="100" height="50" as="geometry" />
        </mxCell>
        <mxCell id="IKLcohhMue1p1g-BQx8n-14" value="" style="edgeStyle=orthogonalEdgeStyle;rounded=0;orthogonalLoop=1;jettySize=auto;html=1;" edge="1" parent="1">
          <mxGeometry relative="1" as="geometry">
            <mxPoint x="390" y="125" as="targetPoint" />
            <mxPoint x="390" y="50" as="sourcePoint" />
          </mxGeometry>
        </mxCell>
        <mxCell id="IKLcohhMue1p1g-BQx8n-15" value="" style="edgeStyle=orthogonalEdgeStyle;rounded=0;orthogonalLoop=1;jettySize=auto;html=1;" edge="1" parent="1" source="IKLcohhMue1p1g-BQx8n-16">
          <mxGeometry relative="1" as="geometry">
            <mxPoint x="390" y="270" as="targetPoint" />
          </mxGeometry>
        </mxCell>
        <mxCell id="IKLcohhMue1p1g-BQx8n-16" value="int n" style="shape=parallelogram;perimeter=parallelogramPerimeter;whiteSpace=wrap;html=1;fixedSize=1;" vertex="1" parent="1">
          <mxGeometry x="330" y="130" width="120" height="60" as="geometry" />
        </mxCell>
        <mxCell id="IKLcohhMue1p1g-BQx8n-17" value="n%2 == 0" style="rhombus;whiteSpace=wrap;html=1;" vertex="1" parent="1">
          <mxGeometry x="350" y="270" width="80" height="80" as="geometry" />
        </mxCell>
        <mxCell id="IKLcohhMue1p1g-BQx8n-18" value="" style="endArrow=none;html=1;rounded=0;" edge="1" parent="1">
          <mxGeometry width="50" height="50" relative="1" as="geometry">
            <mxPoint x="260" y="310" as="sourcePoint" />
            <mxPoint x="350" y="310" as="targetPoint" />
          </mxGeometry>
        </mxCell>
        <mxCell id="IKLcohhMue1p1g-BQx8n-19" value="" style="endArrow=none;html=1;rounded=0;exitX=1;exitY=0.5;exitDx=0;exitDy=0;" edge="1" parent="1" source="IKLcohhMue1p1g-BQx8n-17">
          <mxGeometry width="50" height="50" relative="1" as="geometry">
            <mxPoint x="440" y="309.5" as="sourcePoint" />
            <mxPoint x="530" y="309.5" as="targetPoint" />
          </mxGeometry>
        </mxCell>
        <mxCell id="IKLcohhMue1p1g-BQx8n-20" value="" style="endArrow=classic;html=1;rounded=0;" edge="1" parent="1">
          <mxGeometry width="50" height="50" relative="1" as="geometry">
            <mxPoint x="260" y="310" as="sourcePoint" />
            <mxPoint x="260" y="410" as="targetPoint" />
          </mxGeometry>
        </mxCell>
        <mxCell id="IKLcohhMue1p1g-BQx8n-21" value="" style="endArrow=classic;html=1;rounded=0;" edge="1" parent="1">
          <mxGeometry width="50" height="50" relative="1" as="geometry">
            <mxPoint x="530" y="310" as="sourcePoint" />
            <mxPoint x="530" y="410" as="targetPoint" />
          </mxGeometry>
        </mxCell>
        <mxCell id="IKLcohhMue1p1g-BQx8n-22" value="" style="endArrow=none;html=1;rounded=0;entryX=0;entryY=0.75;entryDx=0;entryDy=0;" edge="1" parent="1">
          <mxGeometry width="50" height="50" relative="1" as="geometry">
            <mxPoint x="310" y="450" as="sourcePoint" />
            <mxPoint x="475" y="454" as="targetPoint" />
          </mxGeometry>
        </mxCell>
        <mxCell id="IKLcohhMue1p1g-BQx8n-23" value="" style="endArrow=classic;html=1;rounded=0;" edge="1" parent="1">
          <mxGeometry width="50" height="50" relative="1" as="geometry">
            <mxPoint x="390" y="450" as="sourcePoint" />
            <mxPoint x="390" y="540" as="targetPoint" />
          </mxGeometry>
        </mxCell>
        <mxCell id="IKLcohhMue1p1g-BQx8n-24" value="End" style="shape=ellipse;html=1;dashed=0;whiteSpace=wrap;perimeter=ellipsePerimeter;" vertex="1" parent="1">
          <mxGeometry x="340" y="540" width="100" height="50" as="geometry" />
        </mxCell>
        <mxCell id="IKLcohhMue1p1g-BQx8n-26" value="Start" style="shape=ellipse;html=1;dashed=0;whiteSpace=wrap;perimeter=ellipsePerimeter;" vertex="1" parent="1">
          <mxGeometry x="340" width="100" height="50" as="geometry" />
        </mxCell>
        <mxCell id="a6H6vHKgoBV5X3Nf5wVG-1" value="Q.5" style="text;html=1;align=center;verticalAlign=middle;resizable=0;points=[];autosize=1;strokeColor=none;fillColor=none;" vertex="1" parent="1">
          <mxGeometry x="40" y="18" width="40" height="30" as="geometry" />
        </mxCell>
      </root>
    </mxGraphModel>
  </diagram>
  <diagram id="aJYociMkpm_s804X21hW" name="Page-13">
    <mxGraphModel dx="1026" dy="675" grid="1" gridSize="10" guides="1" tooltips="1" connect="1" arrows="1" fold="1" page="1" pageScale="1" pageWidth="827" pageHeight="1169" math="0" shadow="0">
      <root>
        <mxCell id="0" />
        <mxCell id="1" parent="0" />
        <mxCell id="0aHFgKQvBf0QyM9wed1i-3" value="" style="edgeStyle=orthogonalEdgeStyle;rounded=0;orthogonalLoop=1;jettySize=auto;html=1;" edge="1" parent="1" source="0aHFgKQvBf0QyM9wed1i-1" target="0aHFgKQvBf0QyM9wed1i-2">
          <mxGeometry relative="1" as="geometry" />
        </mxCell>
        <mxCell id="0aHFgKQvBf0QyM9wed1i-1" value="Start" style="shape=ellipse;html=1;dashed=0;whiteSpace=wrap;perimeter=ellipsePerimeter;" vertex="1" parent="1">
          <mxGeometry x="350" width="100" height="50" as="geometry" />
        </mxCell>
        <mxCell id="0aHFgKQvBf0QyM9wed1i-5" value="" style="edgeStyle=orthogonalEdgeStyle;rounded=0;orthogonalLoop=1;jettySize=auto;html=1;" edge="1" parent="1" source="0aHFgKQvBf0QyM9wed1i-2" target="0aHFgKQvBf0QyM9wed1i-4">
          <mxGeometry relative="1" as="geometry" />
        </mxCell>
        <mxCell id="0aHFgKQvBf0QyM9wed1i-2" value="input n&amp;nbsp;" style="shape=parallelogram;perimeter=parallelogramPerimeter;whiteSpace=wrap;html=1;fixedSize=1;dashed=0;" vertex="1" parent="1">
          <mxGeometry x="340" y="125" width="120" height="60" as="geometry" />
        </mxCell>
        <mxCell id="0aHFgKQvBf0QyM9wed1i-7" value="" style="edgeStyle=orthogonalEdgeStyle;rounded=0;orthogonalLoop=1;jettySize=auto;html=1;" edge="1" parent="1" source="0aHFgKQvBf0QyM9wed1i-4" target="0aHFgKQvBf0QyM9wed1i-6">
          <mxGeometry relative="1" as="geometry" />
        </mxCell>
        <mxCell id="0aHFgKQvBf0QyM9wed1i-4" value="input list [ ]" style="shape=parallelogram;perimeter=parallelogramPerimeter;whiteSpace=wrap;html=1;fixedSize=1;dashed=0;" vertex="1" parent="1">
          <mxGeometry x="340" y="265" width="120" height="60" as="geometry" />
        </mxCell>
        <mxCell id="0aHFgKQvBf0QyM9wed1i-9" value="" style="edgeStyle=orthogonalEdgeStyle;rounded=0;orthogonalLoop=1;jettySize=auto;html=1;" edge="1" parent="1" source="0aHFgKQvBf0QyM9wed1i-6" target="0aHFgKQvBf0QyM9wed1i-8">
          <mxGeometry relative="1" as="geometry" />
        </mxCell>
        <mxCell id="0aHFgKQvBf0QyM9wed1i-6" value="for each n i from n - 1 to list 0&amp;nbsp;" style="rhombus;whiteSpace=wrap;html=1;dashed=0;" vertex="1" parent="1">
          <mxGeometry x="310" y="395" width="180" height="105" as="geometry" />
        </mxCell>
        <mxCell id="0aHFgKQvBf0QyM9wed1i-11" value="" style="edgeStyle=orthogonalEdgeStyle;rounded=0;orthogonalLoop=1;jettySize=auto;html=1;" edge="1" parent="1" source="0aHFgKQvBf0QyM9wed1i-8" target="0aHFgKQvBf0QyM9wed1i-10">
          <mxGeometry relative="1" as="geometry" />
        </mxCell>
        <mxCell id="0aHFgKQvBf0QyM9wed1i-8" value="revrese - list [n] = list [i]" style="whiteSpace=wrap;html=1;dashed=0;" vertex="1" parent="1">
          <mxGeometry x="340" y="602.5" width="120" height="60" as="geometry" />
        </mxCell>
        <mxCell id="0aHFgKQvBf0QyM9wed1i-13" value="" style="edgeStyle=orthogonalEdgeStyle;rounded=0;orthogonalLoop=1;jettySize=auto;html=1;" edge="1" parent="1" source="0aHFgKQvBf0QyM9wed1i-10">
          <mxGeometry relative="1" as="geometry">
            <mxPoint x="400" y="872.5" as="targetPoint" />
          </mxGeometry>
        </mxCell>
        <mxCell id="0aHFgKQvBf0QyM9wed1i-10" value="print reverse list" style="shape=parallelogram;perimeter=parallelogramPerimeter;whiteSpace=wrap;html=1;fixedSize=1;dashed=0;" vertex="1" parent="1">
          <mxGeometry x="340" y="742.5" width="120" height="60" as="geometry" />
        </mxCell>
        <mxCell id="0aHFgKQvBf0QyM9wed1i-14" value="End" style="shape=ellipse;html=1;dashed=0;whiteSpace=wrap;perimeter=ellipsePerimeter;" vertex="1" parent="1">
          <mxGeometry x="350" y="880" width="100" height="50" as="geometry" />
        </mxCell>
        <mxCell id="0aHFgKQvBf0QyM9wed1i-15" value="Q.6" style="text;html=1;align=center;verticalAlign=middle;resizable=0;points=[];autosize=1;strokeColor=none;fillColor=none;" vertex="1" parent="1">
          <mxGeometry x="20" y="8" width="40" height="30" as="geometry" />
        </mxCell>
      </root>
    </mxGraphModel>
  </diagram>
  <diagram id="JjGU8yuUhO1nLZtqDMa-" name="Page-14">
    <mxGraphModel dx="1026" dy="675" grid="1" gridSize="10" guides="1" tooltips="1" connect="1" arrows="1" fold="1" page="1" pageScale="1" pageWidth="827" pageHeight="1169" math="0" shadow="0">
      <root>
        <mxCell id="0" />
        <mxCell id="1" parent="0" />
        <mxCell id="X2Y5qm-OYDnztsLeL8jc-1" value="" style="edgeStyle=orthogonalEdgeStyle;rounded=0;orthogonalLoop=1;jettySize=auto;html=1;" edge="1" parent="1">
          <mxGeometry relative="1" as="geometry">
            <mxPoint x="400" y="125" as="targetPoint" />
            <mxPoint x="400" y="50" as="sourcePoint" />
          </mxGeometry>
        </mxCell>
        <mxCell id="X2Y5qm-OYDnztsLeL8jc-2" value="" style="edgeStyle=orthogonalEdgeStyle;rounded=0;orthogonalLoop=1;jettySize=auto;html=1;" edge="1" parent="1" source="X2Y5qm-OYDnztsLeL8jc-3" target="X2Y5qm-OYDnztsLeL8jc-5">
          <mxGeometry relative="1" as="geometry" />
        </mxCell>
        <mxCell id="X2Y5qm-OYDnztsLeL8jc-3" value="int n" style="shape=parallelogram;perimeter=parallelogramPerimeter;whiteSpace=wrap;html=1;fixedSize=1;" vertex="1" parent="1">
          <mxGeometry x="340" y="130" width="120" height="60" as="geometry" />
        </mxCell>
        <mxCell id="X2Y5qm-OYDnztsLeL8jc-4" value="" style="edgeStyle=orthogonalEdgeStyle;rounded=0;orthogonalLoop=1;jettySize=auto;html=1;" edge="1" parent="1" source="X2Y5qm-OYDnztsLeL8jc-5" target="X2Y5qm-OYDnztsLeL8jc-7">
          <mxGeometry relative="1" as="geometry" />
        </mxCell>
        <mxCell id="X2Y5qm-OYDnztsLeL8jc-5" value="input list[n]" style="whiteSpace=wrap;html=1;" vertex="1" parent="1">
          <mxGeometry x="340" y="270" width="120" height="60" as="geometry" />
        </mxCell>
        <mxCell id="X2Y5qm-OYDnztsLeL8jc-6" value="" style="edgeStyle=orthogonalEdgeStyle;rounded=0;orthogonalLoop=1;jettySize=auto;html=1;" edge="1" parent="1" source="X2Y5qm-OYDnztsLeL8jc-7" target="X2Y5qm-OYDnztsLeL8jc-9">
          <mxGeometry relative="1" as="geometry" />
        </mxCell>
        <mxCell id="X2Y5qm-OYDnztsLeL8jc-7" value="smallest.num=list[0]" style="whiteSpace=wrap;html=1;" vertex="1" parent="1">
          <mxGeometry x="340" y="410" width="120" height="60" as="geometry" />
        </mxCell>
        <mxCell id="X2Y5qm-OYDnztsLeL8jc-8" value="" style="edgeStyle=orthogonalEdgeStyle;rounded=0;orthogonalLoop=1;jettySize=auto;html=1;" edge="1" parent="1" source="X2Y5qm-OYDnztsLeL8jc-9" target="X2Y5qm-OYDnztsLeL8jc-11">
          <mxGeometry relative="1" as="geometry" />
        </mxCell>
        <mxCell id="X2Y5qm-OYDnztsLeL8jc-9" value="for each number to list" style="whiteSpace=wrap;html=1;" vertex="1" parent="1">
          <mxGeometry x="340" y="550" width="120" height="60" as="geometry" />
        </mxCell>
        <mxCell id="X2Y5qm-OYDnztsLeL8jc-10" value="" style="edgeStyle=orthogonalEdgeStyle;rounded=0;orthogonalLoop=1;jettySize=auto;html=1;" edge="1" parent="1" source="X2Y5qm-OYDnztsLeL8jc-11" target="X2Y5qm-OYDnztsLeL8jc-13">
          <mxGeometry relative="1" as="geometry" />
        </mxCell>
        <mxCell id="X2Y5qm-OYDnztsLeL8jc-11" value="number&amp;lt;smallest=num" style="whiteSpace=wrap;html=1;" vertex="1" parent="1">
          <mxGeometry x="340" y="690" width="120" height="60" as="geometry" />
        </mxCell>
        <mxCell id="X2Y5qm-OYDnztsLeL8jc-12" value="" style="edgeStyle=orthogonalEdgeStyle;rounded=0;orthogonalLoop=1;jettySize=auto;html=1;" edge="1" parent="1" source="X2Y5qm-OYDnztsLeL8jc-13" target="X2Y5qm-OYDnztsLeL8jc-15">
          <mxGeometry relative="1" as="geometry" />
        </mxCell>
        <mxCell id="X2Y5qm-OYDnztsLeL8jc-13" value="smallest = number" style="whiteSpace=wrap;html=1;" vertex="1" parent="1">
          <mxGeometry x="340" y="830" width="120" height="60" as="geometry" />
        </mxCell>
        <mxCell id="X2Y5qm-OYDnztsLeL8jc-14" value="" style="edgeStyle=orthogonalEdgeStyle;rounded=0;orthogonalLoop=1;jettySize=auto;html=1;" edge="1" parent="1" source="X2Y5qm-OYDnztsLeL8jc-15">
          <mxGeometry relative="1" as="geometry">
            <mxPoint x="400" y="1100" as="targetPoint" />
          </mxGeometry>
        </mxCell>
        <mxCell id="X2Y5qm-OYDnztsLeL8jc-15" value="print smallest number" style="shape=parallelogram;perimeter=parallelogramPerimeter;whiteSpace=wrap;html=1;fixedSize=1;" vertex="1" parent="1">
          <mxGeometry x="320" y="970" width="140" height="60" as="geometry" />
        </mxCell>
        <mxCell id="X2Y5qm-OYDnztsLeL8jc-16" value="End" style="shape=ellipse;html=1;dashed=0;whiteSpace=wrap;perimeter=ellipsePerimeter;" vertex="1" parent="1">
          <mxGeometry x="340" y="1100" width="100" height="50" as="geometry" />
        </mxCell>
        <mxCell id="X2Y5qm-OYDnztsLeL8jc-17" value="Start" style="shape=ellipse;html=1;dashed=0;whiteSpace=wrap;perimeter=ellipsePerimeter;" vertex="1" parent="1">
          <mxGeometry x="350" width="100" height="50" as="geometry" />
        </mxCell>
        <mxCell id="X2Y5qm-OYDnztsLeL8jc-18" value="Q.7" style="text;html=1;align=center;verticalAlign=middle;resizable=0;points=[];autosize=1;strokeColor=none;fillColor=none;" vertex="1" parent="1">
          <mxGeometry x="40" y="18" width="40" height="30" as="geometry" />
        </mxCell>
      </root>
    </mxGraphModel>
  </diagram>
  <diagram id="earLY8J5VxqZr5V0t2w_" name="Page-15">
    <mxGraphModel dx="1026" dy="675" grid="1" gridSize="10" guides="1" tooltips="1" connect="1" arrows="1" fold="1" page="1" pageScale="1" pageWidth="827" pageHeight="1169" math="0" shadow="0">
      <root>
        <mxCell id="0" />
        <mxCell id="1" parent="0" />
        <mxCell id="E0jlckVe-DEzz0xzs2pF-3" value="" style="edgeStyle=orthogonalEdgeStyle;rounded=0;orthogonalLoop=1;jettySize=auto;html=1;" edge="1" parent="1" source="E0jlckVe-DEzz0xzs2pF-1" target="E0jlckVe-DEzz0xzs2pF-2">
          <mxGeometry relative="1" as="geometry" />
        </mxCell>
        <mxCell id="E0jlckVe-DEzz0xzs2pF-1" value="Start" style="shape=ellipse;html=1;dashed=0;whiteSpace=wrap;perimeter=ellipsePerimeter;" vertex="1" parent="1">
          <mxGeometry x="340" y="10" width="100" height="50" as="geometry" />
        </mxCell>
        <mxCell id="E0jlckVe-DEzz0xzs2pF-7" value="" style="edgeStyle=orthogonalEdgeStyle;rounded=0;orthogonalLoop=1;jettySize=auto;html=1;" edge="1" parent="1" source="E0jlckVe-DEzz0xzs2pF-2" target="E0jlckVe-DEzz0xzs2pF-6">
          <mxGeometry relative="1" as="geometry" />
        </mxCell>
        <mxCell id="E0jlckVe-DEzz0xzs2pF-2" value="input n" style="shape=parallelogram;perimeter=parallelogramPerimeter;whiteSpace=wrap;html=1;fixedSize=1;dashed=0;" vertex="1" parent="1">
          <mxGeometry x="330" y="135" width="120" height="60" as="geometry" />
        </mxCell>
        <mxCell id="E0jlckVe-DEzz0xzs2pF-9" value="" style="edgeStyle=orthogonalEdgeStyle;rounded=0;orthogonalLoop=1;jettySize=auto;html=1;" edge="1" parent="1" source="E0jlckVe-DEzz0xzs2pF-6" target="E0jlckVe-DEzz0xzs2pF-8">
          <mxGeometry relative="1" as="geometry" />
        </mxCell>
        <mxCell id="E0jlckVe-DEzz0xzs2pF-6" value="f = 1" style="shape=parallelogram;perimeter=parallelogramPerimeter;whiteSpace=wrap;html=1;fixedSize=1;dashed=0;" vertex="1" parent="1">
          <mxGeometry x="330" y="275" width="120" height="60" as="geometry" />
        </mxCell>
        <mxCell id="E0jlckVe-DEzz0xzs2pF-11" value="" style="edgeStyle=orthogonalEdgeStyle;rounded=0;orthogonalLoop=1;jettySize=auto;html=1;" edge="1" parent="1" source="E0jlckVe-DEzz0xzs2pF-8" target="E0jlckVe-DEzz0xzs2pF-10">
          <mxGeometry relative="1" as="geometry" />
        </mxCell>
        <mxCell id="E0jlckVe-DEzz0xzs2pF-8" value="for each i from 1 to n" style="whiteSpace=wrap;html=1;dashed=0;" vertex="1" parent="1">
          <mxGeometry x="330" y="415" width="120" height="60" as="geometry" />
        </mxCell>
        <mxCell id="E0jlckVe-DEzz0xzs2pF-13" value="" style="edgeStyle=orthogonalEdgeStyle;rounded=0;orthogonalLoop=1;jettySize=auto;html=1;" edge="1" parent="1" source="E0jlckVe-DEzz0xzs2pF-10" target="E0jlckVe-DEzz0xzs2pF-12">
          <mxGeometry relative="1" as="geometry" />
        </mxCell>
        <mxCell id="E0jlckVe-DEzz0xzs2pF-10" value="f = f *i" style="whiteSpace=wrap;html=1;dashed=0;" vertex="1" parent="1">
          <mxGeometry x="330" y="555" width="120" height="60" as="geometry" />
        </mxCell>
        <mxCell id="E0jlckVe-DEzz0xzs2pF-15" value="" style="edgeStyle=orthogonalEdgeStyle;rounded=0;orthogonalLoop=1;jettySize=auto;html=1;" edge="1" parent="1" source="E0jlckVe-DEzz0xzs2pF-12">
          <mxGeometry relative="1" as="geometry">
            <mxPoint x="390" y="835" as="targetPoint" />
          </mxGeometry>
        </mxCell>
        <mxCell id="E0jlckVe-DEzz0xzs2pF-12" value="print f" style="shape=parallelogram;perimeter=parallelogramPerimeter;whiteSpace=wrap;html=1;fixedSize=1;dashed=0;" vertex="1" parent="1">
          <mxGeometry x="330" y="695" width="120" height="60" as="geometry" />
        </mxCell>
        <mxCell id="E0jlckVe-DEzz0xzs2pF-16" value="End" style="shape=ellipse;html=1;dashed=0;whiteSpace=wrap;perimeter=ellipsePerimeter;" vertex="1" parent="1">
          <mxGeometry x="340" y="840" width="100" height="50" as="geometry" />
        </mxCell>
        <mxCell id="E0jlckVe-DEzz0xzs2pF-17" value="" style="endArrow=classic;html=1;rounded=0;entryX=0;entryY=0.5;entryDx=0;entryDy=0;" edge="1" parent="1" target="E0jlckVe-DEzz0xzs2pF-8">
          <mxGeometry width="50" height="50" relative="1" as="geometry">
            <mxPoint x="330" y="580" as="sourcePoint" />
            <mxPoint x="320" y="440" as="targetPoint" />
            <Array as="points">
              <mxPoint x="250" y="510" />
            </Array>
          </mxGeometry>
        </mxCell>
        <mxCell id="E0jlckVe-DEzz0xzs2pF-18" value="Q.8" style="text;html=1;align=center;verticalAlign=middle;resizable=0;points=[];autosize=1;strokeColor=none;fillColor=none;" vertex="1" parent="1">
          <mxGeometry x="40" y="28" width="40" height="30" as="geometry" />
        </mxCell>
      </root>
    </mxGraphModel>
  </diagram>
  <diagram id="4FpaQOpI-DECOsp3FL0A" name="Page-16">
    <mxGraphModel dx="1026" dy="675" grid="1" gridSize="10" guides="1" tooltips="1" connect="1" arrows="1" fold="1" page="1" pageScale="1" pageWidth="827" pageHeight="1169" math="0" shadow="0">
      <root>
        <mxCell id="0" />
        <mxCell id="1" parent="0" />
        <mxCell id="6v_rxmwTkjJF7GGQj1lD-3" value="" style="edgeStyle=orthogonalEdgeStyle;rounded=0;orthogonalLoop=1;jettySize=auto;html=1;" parent="1" source="6v_rxmwTkjJF7GGQj1lD-1" target="6v_rxmwTkjJF7GGQj1lD-2" edge="1">
          <mxGeometry relative="1" as="geometry" />
        </mxCell>
        <mxCell id="6v_rxmwTkjJF7GGQj1lD-1" value="Start" style="shape=ellipse;html=1;dashed=0;whiteSpace=wrap;perimeter=ellipsePerimeter;" parent="1" vertex="1">
          <mxGeometry x="340" y="10" width="100" height="50" as="geometry" />
        </mxCell>
        <mxCell id="6v_rxmwTkjJF7GGQj1lD-5" value="" style="edgeStyle=orthogonalEdgeStyle;rounded=0;orthogonalLoop=1;jettySize=auto;html=1;" parent="1" source="6v_rxmwTkjJF7GGQj1lD-2" target="6v_rxmwTkjJF7GGQj1lD-4" edge="1">
          <mxGeometry relative="1" as="geometry" />
        </mxCell>
        <mxCell id="6v_rxmwTkjJF7GGQj1lD-2" value="input n" style="shape=parallelogram;perimeter=parallelogramPerimeter;whiteSpace=wrap;html=1;fixedSize=1;dashed=0;" parent="1" vertex="1">
          <mxGeometry x="330" y="135" width="120" height="60" as="geometry" />
        </mxCell>
        <mxCell id="6v_rxmwTkjJF7GGQj1lD-7" value="" style="edgeStyle=orthogonalEdgeStyle;rounded=0;orthogonalLoop=1;jettySize=auto;html=1;" parent="1" source="6v_rxmwTkjJF7GGQj1lD-4" target="6v_rxmwTkjJF7GGQj1lD-6" edge="1">
          <mxGeometry relative="1" as="geometry" />
        </mxCell>
        <mxCell id="6v_rxmwTkjJF7GGQj1lD-4" value="i = 2" style="whiteSpace=wrap;html=1;dashed=0;" parent="1" vertex="1">
          <mxGeometry x="330" y="275" width="120" height="60" as="geometry" />
        </mxCell>
        <mxCell id="6v_rxmwTkjJF7GGQj1lD-9" value="" style="edgeStyle=orthogonalEdgeStyle;rounded=0;orthogonalLoop=1;jettySize=auto;html=1;" parent="1" source="6v_rxmwTkjJF7GGQj1lD-6" target="6v_rxmwTkjJF7GGQj1lD-8" edge="1">
          <mxGeometry relative="1" as="geometry" />
        </mxCell>
        <mxCell id="6v_rxmwTkjJF7GGQj1lD-6" value="i &amp;lt; n" style="rhombus;whiteSpace=wrap;html=1;dashed=0;" parent="1" vertex="1">
          <mxGeometry x="350" y="405" width="80" height="80" as="geometry" />
        </mxCell>
        <mxCell id="6v_rxmwTkjJF7GGQj1lD-11" value="" style="edgeStyle=orthogonalEdgeStyle;rounded=0;orthogonalLoop=1;jettySize=auto;html=1;" parent="1" source="6v_rxmwTkjJF7GGQj1lD-8" target="6v_rxmwTkjJF7GGQj1lD-10" edge="1">
          <mxGeometry relative="1" as="geometry" />
        </mxCell>
        <mxCell id="6v_rxmwTkjJF7GGQj1lD-8" value="n % 1 == 0" style="rhombus;whiteSpace=wrap;html=1;dashed=0;" parent="1" vertex="1">
          <mxGeometry x="350" y="565" width="80" height="80" as="geometry" />
        </mxCell>
        <mxCell id="6v_rxmwTkjJF7GGQj1lD-10" value="i = i + 1" style="whiteSpace=wrap;html=1;dashed=0;" parent="1" vertex="1">
          <mxGeometry x="330" y="735" width="120" height="60" as="geometry" />
        </mxCell>
        <mxCell id="6v_rxmwTkjJF7GGQj1lD-12" value="" style="endArrow=classic;html=1;rounded=0;" parent="1" edge="1">
          <mxGeometry width="50" height="50" relative="1" as="geometry">
            <mxPoint x="450" y="770" as="sourcePoint" />
            <mxPoint x="440" y="450" as="targetPoint" />
            <Array as="points">
              <mxPoint x="660" y="600" />
            </Array>
          </mxGeometry>
        </mxCell>
        <mxCell id="6v_rxmwTkjJF7GGQj1lD-13" value="TRUE" style="text;html=1;align=center;verticalAlign=middle;resizable=0;points=[];autosize=1;strokeColor=none;fillColor=none;" parent="1" vertex="1">
          <mxGeometry x="390" y="498" width="60" height="30" as="geometry" />
        </mxCell>
        <mxCell id="6v_rxmwTkjJF7GGQj1lD-14" value="FALSE" style="text;html=1;align=center;verticalAlign=middle;resizable=0;points=[];autosize=1;strokeColor=none;fillColor=none;" parent="1" vertex="1">
          <mxGeometry x="400" y="648" width="60" height="30" as="geometry" />
        </mxCell>
        <mxCell id="6v_rxmwTkjJF7GGQj1lD-16" value="" style="endArrow=none;html=1;rounded=0;" parent="1" edge="1">
          <mxGeometry width="50" height="50" relative="1" as="geometry">
            <mxPoint x="350" y="450" as="sourcePoint" />
            <mxPoint x="140" y="450" as="targetPoint" />
          </mxGeometry>
        </mxCell>
        <mxCell id="6v_rxmwTkjJF7GGQj1lD-18" value="" style="endArrow=classic;html=1;rounded=0;" parent="1" target="6v_rxmwTkjJF7GGQj1lD-22" edge="1">
          <mxGeometry width="50" height="50" relative="1" as="geometry">
            <mxPoint x="140" y="450" as="sourcePoint" />
            <mxPoint x="140" y="690" as="targetPoint" />
          </mxGeometry>
        </mxCell>
        <mxCell id="6v_rxmwTkjJF7GGQj1lD-19" value="" style="endArrow=none;html=1;rounded=0;" parent="1" edge="1">
          <mxGeometry width="50" height="50" relative="1" as="geometry">
            <mxPoint x="350" y="600" as="sourcePoint" />
            <mxPoint x="150" y="600" as="targetPoint" />
          </mxGeometry>
        </mxCell>
        <mxCell id="6v_rxmwTkjJF7GGQj1lD-20" value="FALSE" style="text;html=1;align=center;verticalAlign=middle;resizable=0;points=[];autosize=1;strokeColor=none;fillColor=none;" parent="1" vertex="1">
          <mxGeometry x="190" y="398" width="60" height="30" as="geometry" />
        </mxCell>
        <mxCell id="6v_rxmwTkjJF7GGQj1lD-21" value="TRUE" style="text;html=1;align=center;verticalAlign=middle;resizable=0;points=[];autosize=1;strokeColor=none;fillColor=none;" parent="1" vertex="1">
          <mxGeometry x="190" y="548" width="60" height="30" as="geometry" />
        </mxCell>
        <mxCell id="6v_rxmwTkjJF7GGQj1lD-22" value="" style="rounded=1;whiteSpace=wrap;html=1;" parent="1" vertex="1">
          <mxGeometry x="80" y="660" width="120" height="60" as="geometry" />
        </mxCell>
        <mxCell id="6v_rxmwTkjJF7GGQj1lD-25" value="" style="edgeStyle=orthogonalEdgeStyle;rounded=0;orthogonalLoop=1;jettySize=auto;html=1;" parent="1" source="6v_rxmwTkjJF7GGQj1lD-23" target="6v_rxmwTkjJF7GGQj1lD-24" edge="1">
          <mxGeometry relative="1" as="geometry" />
        </mxCell>
        <mxCell id="6v_rxmwTkjJF7GGQj1lD-23" value="i == n" style="rounded=0;whiteSpace=wrap;html=1;" parent="1" vertex="1">
          <mxGeometry x="80" y="660" width="120" height="60" as="geometry" />
        </mxCell>
        <mxCell id="6v_rxmwTkjJF7GGQj1lD-24" value="Prime&amp;nbsp;" style="shape=parallelogram;perimeter=parallelogramPerimeter;whiteSpace=wrap;html=1;fixedSize=1;rounded=0;" parent="1" vertex="1">
          <mxGeometry x="80" y="800" width="120" height="60" as="geometry" />
        </mxCell>
        <mxCell id="6v_rxmwTkjJF7GGQj1lD-26" value="" style="endArrow=classic;html=1;rounded=0;" parent="1" edge="1">
          <mxGeometry width="50" height="50" relative="1" as="geometry">
            <mxPoint x="200" y="720" as="sourcePoint" />
            <mxPoint x="350" y="860" as="targetPoint" />
          </mxGeometry>
        </mxCell>
        <mxCell id="6v_rxmwTkjJF7GGQj1lD-31" value="" style="edgeStyle=orthogonalEdgeStyle;rounded=0;orthogonalLoop=1;jettySize=auto;html=1;" parent="1" source="6v_rxmwTkjJF7GGQj1lD-27" target="6v_rxmwTkjJF7GGQj1lD-32" edge="1">
          <mxGeometry relative="1" as="geometry">
            <mxPoint x="340" y="990" as="targetPoint" />
          </mxGeometry>
        </mxCell>
        <mxCell id="6v_rxmwTkjJF7GGQj1lD-27" value="Not prime" style="shape=parallelogram;perimeter=parallelogramPerimeter;whiteSpace=wrap;html=1;fixedSize=1;" parent="1" vertex="1">
          <mxGeometry x="280" y="860" width="120" height="60" as="geometry" />
        </mxCell>
        <mxCell id="6v_rxmwTkjJF7GGQj1lD-28" value="" style="endArrow=none;html=1;rounded=0;" parent="1" edge="1">
          <mxGeometry width="50" height="50" relative="1" as="geometry">
            <mxPoint x="130" y="1010" as="sourcePoint" />
            <mxPoint x="130" y="860" as="targetPoint" />
          </mxGeometry>
        </mxCell>
        <mxCell id="6v_rxmwTkjJF7GGQj1lD-29" value="" style="endArrow=classic;html=1;rounded=0;" parent="1" edge="1">
          <mxGeometry width="50" height="50" relative="1" as="geometry">
            <mxPoint x="130" y="1010" as="sourcePoint" />
            <mxPoint x="330" y="1010" as="targetPoint" />
          </mxGeometry>
        </mxCell>
        <mxCell id="6v_rxmwTkjJF7GGQj1lD-32" value="End" style="shape=ellipse;html=1;dashed=0;whiteSpace=wrap;perimeter=ellipsePerimeter;" parent="1" vertex="1">
          <mxGeometry x="290" y="965" width="100" height="50" as="geometry" />
        </mxCell>
        <mxCell id="6v_rxmwTkjJF7GGQj1lD-33" value="Q.9" style="text;html=1;align=center;verticalAlign=middle;resizable=0;points=[];autosize=1;strokeColor=none;fillColor=none;" parent="1" vertex="1">
          <mxGeometry x="50" y="18" width="40" height="30" as="geometry" />
        </mxCell>
      </root>
    </mxGraphModel>
  </diagram>
</mxfile>
